<svg xmlns="http://www.w3.org/2000/svg" width="40.422" height="40.286" viewBox="0 0 40.422 40.286">
  <g id="noun-data-flexibility-2096585" transform="translate(-78.003 -8.614)">
    <path id="Path_1222" data-name="Path 1222" d="M382.2,10.859h6.979a.816.816,0,0,0,0-1.632H382.2a.816.816,0,1,0,0,1.631Z" transform="translate(-281.039 -0.568)" fill="#ea1b64"/>
    <path id="Path_1223" data-name="Path 1223" d="M208.658,10.859h6.979a.816.816,0,0,0,0-1.632h-6.979a.816.816,0,1,0,0,1.631Z" transform="translate(-120.278 -0.568)" fill="#ea1b64"/>
    <path id="Path_1224" data-name="Path 1224" d="M104.1,217.13a.735.735,0,0,0-.317-.635c-2.719-2.266-7.477-3.58-12.734-3.58s-10.015,1.36-12.734,3.58a.866.866,0,0,0-.317.635c0,.045.045.091.045.181,0,.045-.045.136-.045.181v16.449a.735.735,0,0,0,.317.635c2.719,2.266,7.477,3.58,12.734,3.58a.816.816,0,1,0,0-1.632c-4.577-.045-8.882-1.178-11.329-3.036v-3.625A22.822,22.822,0,0,0,91.1,232.493a22.822,22.822,0,0,0,11.374-2.628v3.625c-1.858,1.45-5.257,2.538-9.018,2.946H93.41c-.045,0-.045,0-.091.045a.793.793,0,0,0-.635.861.879.879,0,0,0,.635.725c.045,0,.091.045.181.045h6.979a.816.816,0,1,0,0-1.632,11.387,11.387,0,0,0,3.308-1.949.823.823,0,0,0,.272-.635V221.3a.816.816,0,1,0-1.632,0v1c-2.447,1.858-6.752,2.991-11.374,2.991s-8.927-1.133-11.374-2.991v-3.58a22.822,22.822,0,0,0,11.374,2.628c5.257,0,10.015-1.359,12.734-3.58a.79.79,0,0,0,.317-.634ZM91.1,226.919a22.822,22.822,0,0,0,11.374-2.628v3.58c-2.447,1.858-6.752,2.991-11.374,2.991s-8.927-1.133-11.374-2.991v-3.58C82.489,225.967,86.613,226.919,91.1,226.919Zm0-7.251c-4.26,0-8.293-.952-10.785-2.583C82.807,215.5,86.84,214.5,91.1,214.5s8.293.952,10.785,2.583C99.347,218.717,95.359,219.669,91.1,219.669Z" transform="translate(0 -189.257)" fill="#ea1b64"/>
    <path id="Path_1225" data-name="Path 1225" d="M181.525,336.425a.827.827,0,0,0-.272,1.631h.227a.824.824,0,0,0,.816-.68.8.8,0,0,0-.68-.952Z" transform="translate(-95.003 -303.657)" fill="#0a2360"/>
    <path id="Path_1226" data-name="Path 1226" d="M242.508,340.972a.816.816,0,0,0,0,1.632h.091a.812.812,0,0,0,.816-.816.852.852,0,0,0-.816-.861Z" transform="translate(-151.635 -307.842)" fill="#0a2360"/>
    <path id="Path_1227" data-name="Path 1227" d="M121.69,323.278a.816.816,0,1,0,.816-.816A.812.812,0,0,0,121.69,323.278Z" transform="translate(-40.47 -290.737)" fill="#0a2360"/>
    <path id="Path_1228" data-name="Path 1228" d="M335.814,318.5a16.732,16.732,0,0,1-2.9.952.776.776,0,0,0-.589,1,.871.871,0,0,0,.816.635.271.271,0,0,0,.181-.045,20.058,20.058,0,0,0,3.172-1.042.851.851,0,0,0,.453-1.088.9.9,0,0,0-1.133-.408Z" transform="translate(-235.562 -286.998)" fill="#0a2360"/>
    <path id="Path_1229" data-name="Path 1229" d="M241.936,421.368h.091a.812.812,0,0,0,.816-.816.852.852,0,0,0-.816-.861h-.136a.812.812,0,0,0-.816.816A.892.892,0,0,0,241.936,421.368Z" transform="translate(-151.064 -380.806)" fill="#ea1b64"/>
    <path id="Path_1230" data-name="Path 1230" d="M180.826,416.2h.227a.824.824,0,0,0,.816-.68.8.8,0,0,0-.68-.952h-.136a.82.82,0,0,0-.952.68A.862.862,0,0,0,180.826,416.2Z" transform="translate(-94.576 -376.05)" fill="#ea1b64"/>
    <path id="Path_1231" data-name="Path 1231" d="M122.508,398.556a.816.816,0,1,0-.816-.816A.812.812,0,0,0,122.508,398.556Z" transform="translate(-40.472 -359.715)" fill="#ea1b64"/>
    <path id="Path_1232" data-name="Path 1232" d="M333.1,399.371a.272.272,0,0,0,.181-.045,20.061,20.061,0,0,0,3.172-1.042.833.833,0,0,0-.635-1.541,16.727,16.727,0,0,1-2.9.952.776.776,0,0,0-.589,1,.747.747,0,0,0,.77.68Z" transform="translate(-235.563 -359.488)" fill="#0a2360"/>
    <path id="Path_1233" data-name="Path 1233" d="M121.69,471.588a.816.816,0,1,0,.816-.816A.812.812,0,0,0,121.69,471.588Z" transform="translate(-40.47 -428.125)" fill="#0a2360"/>
    <path id="Path_1234" data-name="Path 1234" d="M242.508,492.352a.816.816,0,1,0,0,1.632h.091a.812.812,0,0,0,.816-.816.852.852,0,0,0-.816-.861Z" transform="translate(-151.635 -448.074)" fill="#0a2360"/>
    <path id="Path_1235" data-name="Path 1235" d="M181.525,487.185a.827.827,0,0,0-.272,1.631h.227a.824.824,0,0,0,.816-.68.8.8,0,0,0-.68-.952Z" transform="translate(-95.003 -443.315)" fill="#0a2360"/>
    <path id="Path_1236" data-name="Path 1236" d="M333.1,471.991a.271.271,0,0,0,.181-.045,20.067,20.067,0,0,0,3.172-1.042.833.833,0,1,0-.635-1.541,16.732,16.732,0,0,1-2.9.952.776.776,0,0,0-.589,1,.715.715,0,0,0,.77.68Z" transform="translate(-235.563 -426.761)" fill="#0a2360"/>
    <path id="Path_1237" data-name="Path 1237" d="M455.723,532.92h-3.988a.816.816,0,0,0,0,1.632h3.988a.816.816,0,0,0,0-1.632Z" transform="translate(-345.456 -485.697)" fill="#ea1b64"/>
    <path id="Path_1238" data-name="Path 1238" d="M559.931,483.69a.812.812,0,0,0-.816.816v2.764h-2.764a.816.816,0,0,0,0,1.632h3.625a.812.812,0,0,0,.816-.816v-3.625A.88.88,0,0,0,559.931,483.69Z" transform="translate(-442.367 -440.092)" fill="#ea1b64"/>
    <path id="Path_1239" data-name="Path 1239" d="M604.968,310.15a.812.812,0,0,0-.816.816v6.979a.816.816,0,1,0,1.631,0v-6.933a.824.824,0,0,0-.816-.861Z" transform="translate(-487.404 -279.331)" fill="#ea1b64"/>
    <path id="Path_1240" data-name="Path 1240" d="M605.786,138.048a.816.816,0,0,0-1.632,0v6.979a.816.816,0,0,0,1.632,0Z" transform="translate(-487.406 -119.147)" fill="#ea1b64"/>
    <path id="Path_1241" data-name="Path 1241" d="M555.17,10.291h2.764v2.764a.816.816,0,1,0,1.632,0V9.43a.812.812,0,0,0-.816-.816h-3.625a.812.812,0,0,0-.816.816A.891.891,0,0,0,555.17,10.291Z" transform="translate(-441.232)" fill="#ea1b64"/>
    <path id="Path_1242" data-name="Path 1242" d="M80.092,14.484a.812.812,0,0,0,.816-.816v-2.81h2.764a.816.816,0,0,0,0-1.632H80.047a.812.812,0,0,0-.816.816v3.625A.884.884,0,0,0,80.092,14.484Z" transform="translate(-1.138 -0.568)" fill="#ea1b64"/>
    <path id="Path_1243" data-name="Path 1243" d="M80.66,133.521a.812.812,0,0,0,.816-.816v-5.12a.816.816,0,1,0-1.632,0v5.075A.852.852,0,0,0,80.66,133.521Z" transform="translate(-1.706 -109.454)" fill="#ea1b64"/>
    <path id="Path_1244" data-name="Path 1244" d="M439.162,84.741V78.352a.812.812,0,0,0-.816-.816h-6.435a.816.816,0,1,0,0,1.632h4.532l-6.979,7.024a.848.848,0,0,0,0,1.178.751.751,0,0,0,.589.227.954.954,0,0,0,.589-.227l6.843-6.843v4.26a.812.812,0,0,0,.816.816.861.861,0,0,0,.861-.861Z" transform="translate(-325.36 -63.847)" fill="#0a2360"/>
  </g>
</svg>
