<svg xmlns="http://www.w3.org/2000/svg" width="49.07" height="47.504" viewBox="0 0 49.07 47.504">
  <g id="conversation" transform="translate(0 -8.167)">
    <path id="Path_73" data-name="Path 73" d="M2.624,37.486A3.16,3.16,0,0,0,8.751,36.4V34.644a3.621,3.621,0,0,1-1.706-.277,5.88,5.88,0,0,1-.147.581,3.781,3.781,0,0,1-1.2,1.883,3.505,3.505,0,0,1-2.475.717,5.389,5.389,0,0,1-.6-.062Zm18.621-4.708h6.319V30.792H22.7a1.461,1.461,0,0,0-1.453,1.454Zm6.319,1.437H21.245V36.4a3.16,3.16,0,0,0,6.319,0V34.215Zm19.7,4.8a3.423,3.423,0,0,1,1.005.81,3.367,3.367,0,0,1,.8,2.184v4.847a.719.719,0,0,1-1.437,0V42.006a1.941,1.941,0,0,0-.462-1.258,1.974,1.974,0,0,0-.994-.63,4.574,4.574,0,0,1-5.472-.057,1.373,1.373,0,0,0-.424.12,1.315,1.315,0,0,0-.489.4l-3.861,5.113a.722.722,0,0,1-.573.288H30.411a1.324,1.324,0,1,0,0,2.649H36.32a1.291,1.291,0,0,0,.644-.139,4.257,4.257,0,0,0,1.095-1.225l2.557-3.382a.717.717,0,1,1,1.144.864L39.328,47.97v6.265h8.305V50.108a.719.719,0,0,1,1.437,0v4.847a.716.716,0,0,1-.717.717H.72A.719.719,0,0,1,0,54.954V50.108a.719.719,0,0,1,1.437,0v4.127H9.745V47.97L7.311,44.748a.718.718,0,0,1,1.147-.864l2.5,3.309q.342.452.685.91a1.322,1.322,0,0,0,.467.388,1.257,1.257,0,0,0,.6.139h5.952a1.324,1.324,0,1,0,0-2.649h-4.95a.717.717,0,0,1-.573-.288L9.278,40.58a1.329,1.329,0,0,0-.913-.519,4.579,4.579,0,0,1-5.471.06,1.97,1.97,0,0,0-.984.614,1.946,1.946,0,0,0-.473,1.271v4.847a.719.719,0,0,1-1.437,0V42.006A3.377,3.377,0,0,1,.826,39.8a3.46,3.46,0,0,1,.986-.785A4.558,4.558,0,0,1,.994,36.4V32.245a2.894,2.894,0,0,1,2.888-2.891H7.3a2.894,2.894,0,0,1,2.891,2.891V36.4a4.566,4.566,0,0,1-.744,2.5,2.782,2.782,0,0,1,.981.812l3.643,4.825h2.877V41.626a3,3,0,0,1,1.146-2.206,7.554,7.554,0,0,1,2.07-1.252,4.563,4.563,0,0,1-.353-1.766V32.245A2.894,2.894,0,0,1,22.7,29.355h5.586a.721.721,0,0,1,.72.72V36.4a4.6,4.6,0,0,1-.318,1.676,7.823,7.823,0,0,1,2.222,1.277,3.045,3.045,0,0,1,1.217,2.271v2.915H35l3.643-4.825a2.752,2.752,0,0,1,.984-.81,4.562,4.562,0,0,1-.747-2.5V32.245a2.894,2.894,0,0,1,2.891-2.891h3.415a2.894,2.894,0,0,1,2.891,2.891V36.4a4.58,4.58,0,0,1-.818,2.611Zm-.815-1.527a5.323,5.323,0,0,1-.6.062,3.5,3.5,0,0,1-2.472-.717,3.767,3.767,0,0,1-1.2-1.883,5.871,5.871,0,0,1-.144-.581,3.635,3.635,0,0,1-1.709.277V36.4a3.16,3.16,0,0,0,6.126,1.084ZM40.319,33.2a2.342,2.342,0,0,0,1.785-.53.727.727,0,0,1,.467-.2.715.715,0,0,1,.75.682,5.726,5.726,0,0,0,.223,1.372,2.38,2.38,0,0,0,.728,1.187,2.156,2.156,0,0,0,1.508.4,5.174,5.174,0,0,0,.861-.125V32.245a1.466,1.466,0,0,0-1.453-1.454H41.773a1.466,1.466,0,0,0-1.453,1.454Zm-31.569,0v-.959A1.461,1.461,0,0,0,7.3,30.792H3.882a1.461,1.461,0,0,0-1.451,1.454v3.746a5.115,5.115,0,0,0,.859.125,2.155,2.155,0,0,0,1.508-.4,2.4,2.4,0,0,0,.731-1.187,5.59,5.59,0,0,0,.22-1.372.719.719,0,0,1,1.212-.486,2.344,2.344,0,0,0,1.79.535ZM20.93,39.4a6.242,6.242,0,0,0-1.886,1.084,1.64,1.64,0,0,0-.663,1.138v2.915h.28a2.762,2.762,0,0,1,2.423,4.089h6.9a2.765,2.765,0,0,1,2.426-4.089h.277V41.626a1.693,1.693,0,0,0-.712-1.182,6.683,6.683,0,0,0-2.032-1.117c-.092.111-.19.22-.291.321a4.581,4.581,0,0,1-6.5,0q-.118-.118-.228-.245ZM5.99,13.489a.719.719,0,0,1,0-1.437H19.3a.719.719,0,0,1,0,1.437Zm0,7.563a.72.72,0,0,1,0-1.44h6.653a.72.72,0,0,1,0,1.44Zm0-3.782a.719.719,0,0,1,0-1.437H19.3a.719.719,0,0,1,0,1.437Zm14.043,7.664a1.987,1.987,0,0,0,.465.733,2.009,2.009,0,0,0,1.432.595h4.225a.719.719,0,0,1,0,1.437H21.93a3.433,3.433,0,0,1-2.448-1.021,3.493,3.493,0,0,1-.94-1.744H8.52L5.265,28.189a.72.72,0,0,1-1.231-.505V24.875A4.373,4.373,0,0,1,.4,20.577V12.525A4.369,4.369,0,0,1,4.754,8.167H20.533a4.369,4.369,0,0,1,4.358,4.358v1.331H37.1a3.469,3.469,0,0,1,3.461,3.461v6.922a3.471,3.471,0,0,1-2.744,3.385V30.45a.717.717,0,0,1-1.225.508L33.335,27.7H29.409a.719.719,0,1,1,0-1.437h4.225a.71.71,0,0,1,.511.215l2.236,2.236V26.983a.719.719,0,0,1,.72-.72,2.031,2.031,0,0,0,2.024-2.024V17.317A2.031,2.031,0,0,0,37.1,15.293H24.891v5.284a4.369,4.369,0,0,1-4.358,4.358h-.5ZM8.221,23.5H20.533a2.931,2.931,0,0,0,2.92-2.921V12.525A2.931,2.931,0,0,0,20.533,9.6H4.754a2.931,2.931,0,0,0-2.921,2.921v8.052A2.931,2.931,0,0,0,4.754,23.5a.719.719,0,0,1,.717.72v1.731l2.241-2.239a.714.714,0,0,1,.508-.212ZM37.89,50.067H11.182v4.167H37.891V50.067Z" transform="translate(0 0)" fill="#0a2360"/>
  </g>
</svg>
