<svg xmlns="http://www.w3.org/2000/svg" width="41.6" height="41.6" viewBox="0 0 41.6 41.6">
  <g id="noun-target-1753822" transform="translate(-87.5 -17.5)">
    <path id="Path_1268" data-name="Path 1268" d="M99.094,106.383H96.965l-2.011-3.243a.694.694,0,0,0-.589-.328H88.248a.694.694,0,0,0-.589,1.059l2,3.227-2,3.227a.694.694,0,0,0,.589,1.059h6.117a.694.694,0,0,0,.589-.328l2.038-3.287h2.1a15.036,15.036,0,1,0,0-1.387ZM93.979,104.2l1.355,2.184H90.849L89.492,104.2Zm0,5.8H89.492l1.355-2.184h4.485Zm20.135-16.57h0A13.65,13.65,0,1,1,100.5,107.77h2.832a10.816,10.816,0,1,0,0-1.387H100.5a13.654,13.654,0,0,1,13.615-12.956Zm-6.562,14.343a6.6,6.6,0,1,0,0-1.387h-2.834a9.43,9.43,0,1,1,0,1.387Zm4.3,0a2.381,2.381,0,1,0,0-1.387h-2.9a5.213,5.213,0,1,1,0,1.387Zm2.266-1.387H113.4a1,1,0,1,1,0,1.387h.71a.693.693,0,0,0,0-1.387Z" transform="translate(-0.05 -68.634)" fill="#fff"/>
    <path id="Path_1269" data-name="Path 1269" d="M175,17.5h5.547v1.387H175Z" transform="translate(-80.567)" fill="#fff"/>
    <path id="Path_1270" data-name="Path 1270" d="M245,78.75h5.547v1.387H245Z" transform="translate(-145.02 -56.397)" fill="#fff"/>
    <path id="Path_1271" data-name="Path 1271" d="M140,17.5h1.387v1.387H140Z" transform="translate(-48.34)" fill="#fff"/>
    <path id="Path_1272" data-name="Path 1272" d="M122.5,183.75h5.547v1.387H122.5Z" transform="translate(-32.227 -153.077)" fill="#fff"/>
    <path id="Path_1273" data-name="Path 1273" d="M87.5,183.75h1.387v1.387H87.5Z" transform="translate(0 -153.077)" fill="#fff"/>
    <path id="Path_1274" data-name="Path 1274" d="M157.5,376.25h4.16v1.387H157.5Z" transform="translate(-64.453 -330.324)" fill="#fff"/>
    <path id="Path_1275" data-name="Path 1275" d="M122.5,376.25h1.387v1.387H122.5Z" transform="translate(-32.227 -330.324)" fill="#fff"/>
    <path id="Path_1276" data-name="Path 1276" d="M262.5,455h1.387v1.387H262.5Z" transform="translate(-161.133 -402.834)" fill="#fff"/>
    <path id="Path_1277" data-name="Path 1277" d="M122.5,525h5.547v1.387H122.5Z" transform="translate(-32.227 -467.287)" fill="#fff"/>
    <path id="Path_1278" data-name="Path 1278" d="M87.5,525h1.387v1.387H87.5Z" transform="translate(0 -467.287)" fill="#fff"/>
  </g>
</svg>
