<svg xmlns="http://www.w3.org/2000/svg" width="50.275" height="50.275" viewBox="0 0 50.275 50.275">
  <g id="noun_supervised_3507969" transform="translate(-1 -1)">
    <path id="Path_46" data-name="Path 46" d="M50.464,11.541H48.031v-.811a.811.811,0,0,0-.811-.811H34.582L31.06,6.4A18.429,18.429,0,0,0,5,6.4L1.238,10.157a.811.811,0,0,0,0,1.147L5,15.063a18.4,18.4,0,0,0,5.734,3.89V36.679a.811.811,0,0,0,.811.811H31.814v1.43a8.543,8.543,0,0,0,.892,3.8,6.913,6.913,0,0,1,.73,3.072v4.674a.811.811,0,0,0,.811.811h9.731a.811.811,0,0,0,.811-.811V46.41A7.206,7.206,0,0,1,46,42.4l.545-.817a8.819,8.819,0,0,0,1.441-4.1h2.474a.811.811,0,0,0,.811-.811V12.352A.811.811,0,0,0,50.464,11.541ZM44.639,32.625A2.433,2.433,0,0,0,42.355,31H40.733a.811.811,0,0,0-.811.811v.811H36.355a10.425,10.425,0,0,0-4.541,1.044V14.31l2.768-2.768H46.41V32.625ZM15.6,20.283a18.621,18.621,0,0,0,2.433.178,18.28,18.28,0,0,0,12.163-4.61V33.668a10.425,10.425,0,0,0-4.541-1.044H15.6ZM2.958,10.731,6.143,7.545a16.808,16.808,0,0,1,23.77,0L33.1,10.731l-3.186,3.186a16.808,16.808,0,0,1-23.77,0Zm9.395,25.137V19.561c.532.172,1.074.315,1.622.439V33.435a.811.811,0,0,0,.811.811H25.651a8.821,8.821,0,0,1,4.906,1.486.811.811,0,0,0,.9,0,8.821,8.821,0,0,1,4.9-1.486h3.564v1.622Zm32.841,4.817-.545.817a8.823,8.823,0,0,0-1.482,4.907v3.244H35.057V45.79a8.544,8.544,0,0,0-.892-3.8,6.913,6.913,0,0,1-.73-3.072V37.49h6.487v.081a4.061,4.061,0,0,0-3.244,3.973v1.622H38.3V41.544a2.433,2.433,0,0,1,2.433-2.433.811.811,0,0,0,.811-.811V32.625h.811a.811.811,0,0,1,.811.811v6.487h1.622V37.49H46.35A7.194,7.194,0,0,1,45.193,40.686Zm4.46-4.817H44.788V34.246h2.433a.811.811,0,0,0,.811-.811V13.163h1.622Z" transform="translate(0 0)" fill="#0a2360"/>
    <rect id="Rectangle_5" data-name="Rectangle 5" width="10" height="2" transform="translate(17 21)" fill="#0a2360"/>
    <rect id="Rectangle_6" data-name="Rectangle 6" width="10" height="1" transform="translate(17 25)" fill="#0a2360"/>
    <rect id="Rectangle_7" data-name="Rectangle 7" width="10" height="1" transform="translate(17 28)" fill="#0a2360"/>
    <rect id="Rectangle_8" data-name="Rectangle 8" width="8" height="1" transform="translate(35 15)" fill="#0a2360"/>
    <rect id="Rectangle_9" data-name="Rectangle 9" width="10" height="2" transform="translate(33 18)" fill="#0a2360"/>
    <rect id="Rectangle_10" data-name="Rectangle 10" width="10" height="2" transform="translate(33 21)" fill="#0a2360"/>
    <rect id="Rectangle_11" data-name="Rectangle 11" width="10" height="1" transform="translate(33 28)" fill="#0a2360"/>
    <path id="Path_47" data-name="Path 47" d="M27.6,11.3a7.3,7.3,0,1,0-7.3,7.3,7.3,7.3,0,0,0,7.3-7.3Zm-12.974,0A5.676,5.676,0,1,1,20.3,16.974,5.676,5.676,0,0,1,14.622,11.3Z" transform="translate(-2.269 -0.567)" fill="#0a2360"/>
    <path id="Path_48" data-name="Path 48" d="M25.109,12.054a4.06,4.06,0,0,0-.178-1.193.811.811,0,0,0-1.108-.5.833.833,0,0,1-1.147-.739.811.811,0,0,1,.072-.336.811.811,0,0,0-.5-1.108,4.054,4.054,0,1,0,2.862,3.876Zm-6.487,0a2.433,2.433,0,0,1,2.433-2.433,2.433,2.433,0,0,0,2.433,2.433,2.433,2.433,0,1,1-4.865,0Z" transform="translate(-3.026 -1.324)" fill="#0a2360"/>
  </g>
</svg>
