<svg xmlns="http://www.w3.org/2000/svg" width="50.02" height="50.02" viewBox="0 0 50.02 50.02">
  <g id="noun_training_1422944" transform="translate(-2 -2)">
    <g id="Layer_3" data-name="Layer 3" transform="translate(2 2)">
      <path id="Path_49" data-name="Path 49" d="M11.876,13A5,5,0,0,0,8.3,14.509,4.568,4.568,0,0,0,7,17.91l.092,2.243A4.794,4.794,0,0,0,12,24.671h0a4.794,4.794,0,0,0,4.869-4.518L17,17.91a4.568,4.568,0,0,0-1.292-3.4A5,5,0,0,0,12.126,13ZM12,23h0a3.126,3.126,0,0,1-3.2-2.918V19.4a7.553,7.553,0,0,0,4.36-1.667,3.743,3.743,0,0,0,2.176,1.526v.792A3.126,3.126,0,0,1,12,23Zm3.335-5.469A2.017,2.017,0,0,1,14.2,16.143a.834.834,0,0,0-1.542-.308,5.114,5.114,0,0,1-3.968,1.9,2.934,2.934,0,0,1,.834-2.067,3.335,3.335,0,0,1,2.351-1h.25a3.335,3.335,0,0,1,2.376,1A2.96,2.96,0,0,1,15.336,17.535Z" transform="translate(-2.831 -3.83)" fill="#0a2360"/>
      <path id="Path_50" data-name="Path 50" d="M50.876,37A5,5,0,0,0,47.3,38.509a4.568,4.568,0,0,0-1.3,3.4l.092,2.243A4.794,4.794,0,0,0,51,48.671h0a4.794,4.794,0,0,0,4.869-4.518L56,41.91a4.568,4.568,0,0,0-1.292-3.4A5,5,0,0,0,51.126,37Zm3.46,4.835-.1,2.251A3.126,3.126,0,0,1,51,47h0a3.126,3.126,0,0,1-3.2-2.918l-.133-2.251a2.951,2.951,0,0,1,.834-2.168,3.335,3.335,0,0,1,2.376-1h.25a3.335,3.335,0,0,1,2.376,1A2.951,2.951,0,0,1,54.336,41.835Z" transform="translate(-9.318 -7.822)" fill="#0a2360"/>
      <path id="Path_51" data-name="Path 51" d="M4.5,44.295a2.5,2.5,0,0,0,.834-.142v.975a.834.834,0,0,0,.834.834h10a.834.834,0,0,0,.834-.834V31.615a.834.834,0,0,1,.225-.575L27.844,19.668A2.334,2.334,0,1,0,24.509,16.4l-9.27,9.312a.834.834,0,0,1-.592.242H6.168A4.168,4.168,0,0,0,2,30.122V41.794a2.5,2.5,0,0,0,2.5,2.5ZM3.667,30.122a2.5,2.5,0,0,1,2.5-2.5h8.478a2.5,2.5,0,0,0,1.767-.734l9.312-9.27a.642.642,0,1,1,.884.925l-10.6,11.363a2.5,2.5,0,0,0-.667,1.667V44.295H7V31.79a.834.834,0,0,0-1.667,0v10a.834.834,0,0,1-1.667,0Z" transform="translate(-2 -4.279)" fill="#0a2360"/>
      <path id="Path_52" data-name="Path 52" d="M12.834,42.671a.834.834,0,0,0,.834-.834v-10a.834.834,0,1,0-1.667,0v10A.834.834,0,0,0,12.834,42.671Z" transform="translate(-3.663 -6.824)" fill="#0a2360"/>
      <path id="Path_53" data-name="Path 53" d="M29,48.671h0a4.794,4.794,0,0,0,4.869-4.518L34,41.91a4.568,4.568,0,0,0-1.292-3.4A5,5,0,0,0,29.126,37h-.25A5,5,0,0,0,25.3,38.509a4.568,4.568,0,0,0-1.3,3.4l.092,2.243A4.794,4.794,0,0,0,29,48.671Zm-2.5-9a3.335,3.335,0,0,1,2.376-1h.25a3.335,3.335,0,0,1,2.376,1,2.951,2.951,0,0,1,.834,2.168l-.1,2.251A3.126,3.126,0,0,1,29,47h0a3.126,3.126,0,0,1-3.2-2.918l-.133-2.251a2.951,2.951,0,0,1,.834-2.168Z" transform="translate(-5.659 -7.822)" fill="#0a2360"/>
      <path id="Path_54" data-name="Path 54" d="M32.647,52h-8.62A4.035,4.035,0,0,0,20,56.027V59.5a.834.834,0,1,0,1.667,0V56.027a2.359,2.359,0,0,1,2.359-2.359h8.62a2.359,2.359,0,0,1,2.359,2.359V59.5a.834.834,0,1,0,1.667,0V56.027A4.035,4.035,0,0,0,32.647,52Z" transform="translate(-4.994 -10.317)" fill="#0a2360"/>
      <path id="Path_55" data-name="Path 55" d="M58.673,56.027A4.035,4.035,0,0,0,54.647,52h-8.62A4.035,4.035,0,0,0,42,56.027V59.5a.834.834,0,1,0,1.667,0V56.027a2.359,2.359,0,0,1,2.359-2.359h8.62a2.359,2.359,0,0,1,2.359,2.359V59.5a.834.834,0,0,0,1.667,0Z" transform="translate(-8.653 -10.317)" fill="#0a2360"/>
      <path id="Path_56" data-name="Path 56" d="M55.18,27.01V4.5a2.5,2.5,0,0,0-2.5-2.5H23.5A2.5,2.5,0,0,0,21,4.5v12.5a.834.834,0,1,0,1.667,0V7H53.513V27.01a.834.834,0,0,1-.834.834H24.268a.834.834,0,0,0,0,1.667H52.721A2.5,2.5,0,0,0,55.18,27.01ZM22.667,5.335V4.5a.834.834,0,0,1,.834-.834H52.763A.834.834,0,0,1,53.6,4.5v.834Z" transform="translate(-5.16 -2)" fill="#0a2360"/>
      <path id="Path_57" data-name="Path 57" d="M56.834,14.75a.834.834,0,0,0-.834.834v11.88a.834.834,0,0,0,1.667,0V15.584A.834.834,0,0,0,56.834,14.75Z" transform="translate(-10.982 -4.121)" fill="#0a2360"/>
      <path id="Path_58" data-name="Path 58" d="M52.834,21a.834.834,0,0,0-.834.834V28.5a.834.834,0,0,0,1.667,0V21.834A.834.834,0,0,0,52.834,21Z" transform="translate(-10.317 -5.16)" fill="#0a2360"/>
      <path id="Path_59" data-name="Path 59" d="M48,19.834V28.17a.834.834,0,0,0,1.667,0V19.834a.834.834,0,0,0-1.667,0Z" transform="translate(-9.652 -4.828)" fill="#0a2360"/>
      <path id="Path_60" data-name="Path 60" d="M44.834,25a.834.834,0,0,0-.834.834v3.335a.834.834,0,0,0,1.667,0V25.834A.834.834,0,0,0,44.834,25Z" transform="translate(-8.986 -5.826)" fill="#0a2360"/>
      <path id="Path_61" data-name="Path 61" d="M40.167,23.018a.834.834,0,0,0,1.167.167l3.335-2.5a.75.75,0,0,0,.242-.292L47.8,14.615l2.5,1.9a.884.884,0,0,0,.642.158.834.834,0,0,0,.55-.367l3.335-5a.834.834,0,0,0-1.384-.917L50.6,14.656,48,12.681a.835.835,0,0,0-1.242.292L43.51,19.467l-3.176,2.384A.834.834,0,0,0,40.167,23.018Z" transform="translate(-8.321 -3.344)" fill="#0a2360"/>
      <path id="Path_62" data-name="Path 62" d="M35.838,10h-10a.834.834,0,0,0,0,1.667h10a.834.834,0,1,0,0-1.667Z" transform="translate(-5.826 -3.331)" fill="#0a2360"/>
      <path id="Path_63" data-name="Path 63" d="M43.5,11.667A.834.834,0,1,0,43.5,10H41.834a.834.834,0,1,0,0,1.667Z" transform="translate(-8.487 -3.331)" fill="#0a2360"/>
    </g>
  </g>
</svg>
