<svg xmlns="http://www.w3.org/2000/svg" width="47.738" height="35.537" viewBox="0 0 47.738 35.537">
  <g id="noun-online-teaching-1832496" transform="translate(-118.079 -107.69)">
    <path id="Path_1279" data-name="Path 1279" d="M161.894,107.84H122a3.778,3.778,0,0,0-3.773,3.773V139.3A3.778,3.778,0,0,0,122,143.077h39.891a3.778,3.778,0,0,0,3.773-3.773v-27.69a3.778,3.778,0,0,0-3.773-3.773Zm2.719,31.464a2.722,2.722,0,0,1-2.719,2.721H122a2.722,2.722,0,0,1-2.719-2.719V111.614A2.722,2.722,0,0,1,122,108.892h39.891a2.722,2.722,0,0,1,2.719,2.719Z" fill="#ea1b64" stroke="#ea1b64" stroke-width="0.3"/>
    <path id="Path_1280" data-name="Path 1280" d="M210.081,139.56H175.268a.527.527,0,0,0-.527.527v27.69a.527.527,0,0,0,.527.527h34.812a.525.525,0,0,0,.526-.527v-27.69a.525.525,0,0,0-.526-.527Zm-.527,27.692H196.946a2.151,2.151,0,0,0-.218-2.529l4.581-6.29a.527.527,0,0,0-.852-.621l-4.589,6.3h0a2.16,2.16,0,0,0-.777-.147h-6.166a5.325,5.325,0,0,0-3.169-3.546v-.257a3.768,3.768,0,0,0,2.78-3.63V154.06a1.8,1.8,0,0,0,.172-.088,1.7,1.7,0,0,0,.835-1.382,3.882,3.882,0,0,0-1.034-2.977,6.734,6.734,0,0,0-4.925-1.644,4.027,4.027,0,0,0-3.036,1.1,3.421,3.421,0,0,0-.89,1.917,2.184,2.184,0,0,0-1.1.862,3.117,3.117,0,0,0-.511,2.11,4.04,4.04,0,0,0,1.736,2.918h0a1.8,1.8,0,0,0,1.027.336,3.644,3.644,0,0,0,1.2,2.046v.932a5.339,5.339,0,0,0-4.119,5.191v1.875H175.8v-26.64h33.752Zm-13.35-1.119a1.119,1.119,0,0,1-1.087,1.113h-.287v-2.223h.259c.037,0,.072.008.112.011a1.11,1.11,0,0,1,.874.59,1.093,1.093,0,0,1,.129.509Zm-17.269,1.119v-1.874a4.28,4.28,0,0,1,3.192-4.133.69.69,0,0,0,.063.065l1.352,1.119a.529.529,0,0,0,.681-.007l1.162-1.007a4.269,4.269,0,0,1,2.6,3.177.526.526,0,0,0,.517.431h5.272v2.229h-8.21l-.5-2.51a1.031,1.031,0,0,0-1.04-.775h-.063a1.024,1.024,0,0,0-1.043.794l-.448,2.488h-3.538Zm4.117-7.2v-.12a2.778,2.778,0,0,0,.285.112,4.215,4.215,0,0,0,1.364.252v.312l-.048.042-.536.463-.249.215-.277-.229-.54-.448v-.606Zm-2.661-4.035a2.976,2.976,0,0,1-1.3-2.169h0a2.065,2.065,0,0,1,.327-1.4,1.026,1.026,0,0,1,.774-.5.528.528,0,0,0,.491-.548,2.446,2.446,0,0,1,.624-1.6,3.03,3.03,0,0,1,2.275-.774,5.741,5.741,0,0,1,4.162,1.318,2.871,2.871,0,0,1,.744,2.2.68.68,0,0,1-.317.527.659.659,0,0,1-.171.069.65.65,0,0,1-.458-.044l-.086-.04a7.539,7.539,0,0,0-3.838-.723h0a1.954,1.954,0,0,0-1.734,1.611l-.086.484-.193,1.083h0a.8.8,0,0,1-.485.594.757.757,0,0,1-.376.054.741.741,0,0,1-.348-.138Zm2.248-.325.28-1.567h0a.9.9,0,0,1,.79-.746,6.493,6.493,0,0,1,3.372.663h0a1.772,1.772,0,0,0,.4.136v2.36a2.714,2.714,0,0,1-1.726,2.523,2.668,2.668,0,0,1-.526.147,2.715,2.715,0,0,1-.459.041H184.7a3.146,3.146,0,0,1-1.65-.519,3.092,3.092,0,0,1-.526-.431,2.707,2.707,0,0,1-.526-.775,2.277,2.277,0,0,1-.179-.606,1.835,1.835,0,0,0,.82-1.226Zm.9,11.561.4-2.226h.1l.448,2.225h-.951Z" transform="translate(-50.729 -28.474)" fill="#ea1b64" stroke="#ea1b64" stroke-width="0.3"/>
    <path id="Path_1281" data-name="Path 1281" d="M528.327,260.87a1.877,1.877,0,1,0,1.325.55,1.875,1.875,0,0,0-1.325-.55Zm0,2.827a.953.953,0,1,1,.953-.952.953.953,0,0,1-.953.952Z" transform="translate(-365.988 -136.65)" fill="#0a2360"/>
    <path id="Path_1282" data-name="Path 1282" d="M148.71,250.18a.528.528,0,0,0-.527.527v4.78a.527.527,0,1,0,1.053,0v-4.78a.526.526,0,0,0-.526-.527Z" transform="translate(-26.888 -128.149)" fill="#0a2360"/>
    <path id="Path_1283" data-name="Path 1283" d="M366.408,221.634h11.259a.527.527,0,1,0,0-1.054H366.408a.527.527,0,0,0,0,1.054Z" transform="translate(-222.308 -101.202)" fill="#0a2360" stroke="#0a2360" stroke-width="0.3"/>
    <path id="Path_1284" data-name="Path 1284" d="M366.408,189.633h11.259a.527.527,0,1,0,0-1.054H366.408a.527.527,0,0,0,0,1.054Z" transform="translate(-222.308 -72.476)" fill="#0a2360" stroke="#0a2360" stroke-width="0.3"/>
    <path id="Path_1285" data-name="Path 1285" d="M417.692,252.58H411a.527.527,0,1,0,0,1.055h6.7a.527.527,0,0,0,0-1.055Z" transform="translate(-262.333 -129.927)" fill="#0a2360" stroke="#0a2360" stroke-width="0.3"/>
    <path id="Path_1286" data-name="Path 1286" d="M281.732,294.092a.4.4,0,0,0,.4-.4v-.3a.4.4,0,1,0-.8,0v.3a.4.4,0,0,0,.4.4Z" transform="translate(-146.412 -166.186)" fill="#ea1b64"/>
    <path id="Path_1287" data-name="Path 1287" d="M263.754,294.288a.4.4,0,0,0,.4-.4v-.3a.4.4,0,1,0-.8,0v.3a.4.4,0,0,0,.4.4Z" transform="translate(-130.274 -166.382)" fill="#ea1b64"/>
  </g>
</svg>
