<svg xmlns="http://www.w3.org/2000/svg" width="41.217" height="45.695" viewBox="0 0 41.217 45.695">
  <g id="noun-save-doc-986490" transform="translate(-96.458 3.698)">
    <path id="Path_1288" data-name="Path 1288" d="M166.245,281.566a11.257,11.257,0,0,0-13.917,13.366l-1.653-1.033-.551.9,3.238,2,2-3.238-.9-.551-1.1,1.791a10.177,10.177,0,0,1,4.823-11.23,9.764,9.764,0,0,1,7.716-.965,10.233,10.233,0,0,1,6.2,4.754,9.966,9.966,0,0,1,.965,7.785l.965.276a11.1,11.1,0,0,0-1.1-8.612,10.466,10.466,0,0,0-6.683-5.236Z" transform="translate(-49.145 -261.866)" fill="#0a2360" stroke="#0a2360" stroke-width="0.5"/>
    <path id="Path_1289" data-name="Path 1289" d="M211.946,484.013l.207,1.033,2-.345a10.2,10.2,0,0,1-11.23,3.376,10.388,10.388,0,0,1-5.374-4.134l-.9.551a11.12,11.12,0,0,0,5.925,4.547,10.4,10.4,0,0,0,3.514.551,11.129,11.129,0,0,0,8.819-4.34l.345,2,1.033-.207-.689-3.72Z" transform="translate(-91.952 -447.846)" fill="#0a2360" stroke="#0a2360" stroke-width="0.5"/>
    <path id="Path_1290" data-name="Path 1290" d="M137.149,9.022a.491.491,0,0,0-.413-.207h-3.583V.823A.543.543,0,0,0,132.6.272H117.514L113.586-3.31a.526.526,0,0,0-.345-.138H100.7a.543.543,0,0,0-.551.551V.065H97.259a.543.543,0,0,0-.551.551V28.45c0,.069,0,.069.069.138v.069l.207.207c.069,0,.138.069.207.069h4.547a.551.551,0,1,0,0-1.1H98.016l7.027-18.12h30.865L128.95,27.9h-2.273a.551.551,0,0,0,0,1.1h2.618a.518.518,0,0,0,.482-.345L137.148,9.5a.581.581,0,0,0,0-.482ZM101.255-2.346h11.781l3.927,3.583a.526.526,0,0,0,.345.138h14.744V8.746h-2.48V4.337a.543.543,0,0,0-.551-.551H114.827l-4-3.514a.526.526,0,0,0-.345-.138h-9.232ZM104.63,8.747a.518.518,0,0,0-.482.345L97.741,25.626V1.168H110.28l3.927,3.583a.526.526,0,0,0,.345.138h13.985V8.815H104.631Z" fill="#ea1b64" stroke="#ea1b64" stroke-width="0.5"/>
    <path id="Path_1291" data-name="Path 1291" d="M256.845,371.221l-.758-.758-7.027,7.027-2.549-2.549-.758.758,3.307,3.238Z" transform="translate(-137.127 -344.011)" fill="#ea1b64" stroke="#ea1b64" stroke-width="0.5"/>
  </g>
</svg>
