<svg xmlns="http://www.w3.org/2000/svg" width="20.592" height="20.592" viewBox="0 0 20.592 20.592">
  <g id="_x31_0.Linkedin" transform="translate(-10 -10)">
    <path id="Path_70" data-name="Path 70" d="M51.607,49.38V41.838c0-3.707-.8-6.538-5.122-6.538a4.469,4.469,0,0,0-4.041,2.214h-.051V35.635H38.3V49.38h4.273V42.559c0-1.8.335-3.526,2.548-3.526,2.188,0,2.214,2.033,2.214,3.629v6.692h4.273Z" transform="translate(-21.016 -18.788)" fill="#fff"/>
    <path id="Path_71" data-name="Path 71" d="M11.3,36.6h4.273V50.345H11.3Z" transform="translate(-0.965 -19.753)" fill="#fff"/>
    <path id="Path_72" data-name="Path 72" d="M12.471,10a2.484,2.484,0,1,0,2.471,2.471A2.472,2.472,0,0,0,12.471,10Z" fill="#fff"/>
  </g>
</svg>
