<svg id="aivalable-on-the-app-store-2-logo-svgrepo-com" xmlns="http://www.w3.org/2000/svg" width="229.996" height="68.165" viewBox="0 0 229.996 68.165">
  <path id="Path_14" data-name="Path 14" d="M237.636,69.281a6.528,6.528,0,0,1-6.535,6.529H17.225a6.537,6.537,0,0,1-6.544-6.529V17.217a6.545,6.545,0,0,1,6.544-6.537H231.1a6.536,6.536,0,0,1,6.536,6.537l0,52.064Z" transform="translate(-9.164 -9.163)" fill="#fff"/>
  <path id="Path_15" data-name="Path 15" d="M221.936,68.165H8.061A8.063,8.063,0,0,1,0,60.118V8.056A8.068,8.068,0,0,1,8.061,0H221.935A8.071,8.071,0,0,1,230,8.056V60.118a8.062,8.062,0,0,1-8.059,8.047Z" fill="none"/>
  <path id="Path_16" data-name="Path 16" d="M237.636,69.281a6.528,6.528,0,0,1-6.535,6.529H17.225a6.537,6.537,0,0,1-6.544-6.529V17.217a6.545,6.545,0,0,1,6.544-6.537H231.1a6.536,6.536,0,0,1,6.536,6.537l0,52.064Z" transform="translate(-9.164 -9.163)"/>
  <path id="Path_17" data-name="Path 17" d="M183.055,97.73a9.881,9.881,0,0,1,4.706-8.291,10.121,10.121,0,0,0-7.971-4.309c-3.353-.353-6.605,2.006-8.313,2.006-1.742,0-4.372-1.972-7.207-1.914a10.612,10.612,0,0,0-8.932,5.448c-3.862,6.687-.982,16.514,2.719,21.919,1.851,2.649,4.014,5.6,6.846,5.5,2.77-.113,3.8-1.764,7.147-1.764,3.312,0,4.284,1.764,7.171,1.7,2.973-.046,4.845-2.659,6.631-5.33a21.857,21.857,0,0,0,3.033-6.176A9.56,9.56,0,0,1,183.055,97.73ZM177.6,81.574a9.726,9.726,0,0,0,2.226-6.97,9.908,9.908,0,0,0-6.406,3.314,9.256,9.256,0,0,0-2.284,6.713,8.184,8.184,0,0,0,6.464-3.056Z" transform="translate(-131.699 -64.006)" fill="#fff"/>
  <g id="Group_4" data-name="Group 4" transform="translate(72.326 30.681)">
    <path id="Path_19" data-name="Path 19" d="M528.311,239.01H524.44l-2.12-6.663h-7.371l-2.02,6.663H509.16l7.3-22.685h4.51Zm-6.631-9.459-1.918-5.923q-.3-.908-1.144-4.273h-.068q-.338,1.447-1.077,4.273l-1.885,5.923Zm25.378,1.079a9.263,9.263,0,0,1-2.267,6.6,6.647,6.647,0,0,1-5.042,2.155,5.048,5.048,0,0,1-4.671-2.32v8.583h-3.634V228.029q0-2.621-.135-5.376h3.2l.2,2.593h.068a6.465,6.465,0,0,1,10.349-.643A9.045,9.045,0,0,1,547.059,230.631Zm-3.7.133a6.744,6.744,0,0,0-1.077-3.939,3.723,3.723,0,0,0-3.164-1.614,3.779,3.779,0,0,0-2.439.891,4.133,4.133,0,0,0-1.43,2.34,4.744,4.744,0,0,0-.169,1.106v2.729a4.377,4.377,0,0,0,1.094,3.014,3.633,3.633,0,0,0,2.843,1.229,3.724,3.724,0,0,0,3.2-1.582A6.962,6.962,0,0,0,543.356,230.763Zm22.516-.133a9.263,9.263,0,0,1-2.267,6.6,6.651,6.651,0,0,1-5.044,2.155,5.047,5.047,0,0,1-4.671-2.32v8.583h-3.634V228.029q0-2.621-.135-5.376h3.2l.2,2.593h.068a6.467,6.467,0,0,1,10.35-.643A9.054,9.054,0,0,1,565.872,230.631Zm-3.7.133a6.742,6.742,0,0,0-1.079-3.939,3.717,3.717,0,0,0-3.16-1.614,3.794,3.794,0,0,0-2.443.891,4.133,4.133,0,0,0-1.429,2.34,4.854,4.854,0,0,0-.17,1.106v2.729a4.392,4.392,0,0,0,1.093,3.014,3.64,3.64,0,0,0,2.847,1.229,3.721,3.721,0,0,0,3.2-1.582A6.963,6.963,0,0,0,562.168,230.763Zm24.739,1.884a6.06,6.06,0,0,1-2.016,4.713,8.939,8.939,0,0,1-6.179,1.986,10.786,10.786,0,0,1-5.874-1.413l.84-3.029a10.111,10.111,0,0,0,5.25,1.415,4.953,4.953,0,0,0,3.2-.926,3.024,3.024,0,0,0,1.147-2.472,3.167,3.167,0,0,0-.944-2.323,8.755,8.755,0,0,0-3.13-1.749q-5.958-2.222-5.959-6.5a5.737,5.737,0,0,1,2.1-4.577,8.317,8.317,0,0,1,5.571-1.785,11.008,11.008,0,0,1,5.15,1.077l-.912,2.962a9,9,0,0,0-4.359-1.043,4.433,4.433,0,0,0-3.007.943,2.7,2.7,0,0,0-.912,2.056,2.779,2.779,0,0,0,1.045,2.221,11.778,11.778,0,0,0,3.3,1.749,11.179,11.179,0,0,1,4.307,2.758A5.748,5.748,0,0,1,586.907,232.647Zm12.047-7.267h-4.006v7.942q0,3.03,2.121,3.027a6.393,6.393,0,0,0,1.614-.169l.1,2.76a8.231,8.231,0,0,1-2.826.4,4.356,4.356,0,0,1-3.367-1.314q-1.21-1.314-1.212-4.41v-8.245h-2.387v-2.727h2.387v-2.995l3.569-1.077v4.072h4.006Zm18.038,5.317a8.973,8.973,0,0,1-2.155,6.193,7.68,7.68,0,0,1-5.99,2.49,7.321,7.321,0,0,1-5.739-2.386,8.7,8.7,0,0,1-2.138-6.024,8.9,8.9,0,0,1,2.2-6.225,7.641,7.641,0,0,1,5.942-2.424,7.474,7.474,0,0,1,5.787,2.39A8.587,8.587,0,0,1,616.992,230.7Zm-3.767.084a7.323,7.323,0,0,0-.973-3.859,3.6,3.6,0,0,0-3.266-1.948,3.649,3.649,0,0,0-3.333,1.948,7.444,7.444,0,0,0-.975,3.927,7.3,7.3,0,0,0,.975,3.861,3.727,3.727,0,0,0,6.568-.032A7.352,7.352,0,0,0,613.225,230.781Zm15.584-4.931a6.314,6.314,0,0,0-1.146-.1A3.43,3.43,0,0,0,624.7,227.2a5.457,5.457,0,0,0-.907,3.23v8.583H620.16V227.8q0-2.825-.106-5.15h3.166l.133,3.13h.1a5.613,5.613,0,0,1,1.817-2.593,4.4,4.4,0,0,1,2.627-.876,5.818,5.818,0,0,1,.909.067Zm16.255,4.209a8.525,8.525,0,0,1-.133,1.648h-10.9a4.745,4.745,0,0,0,1.582,3.706,5.409,5.409,0,0,0,3.566,1.142,12.058,12.058,0,0,0,4.411-.772l.569,2.521a13.638,13.638,0,0,1-5.484,1.011,7.95,7.95,0,0,1-5.976-2.236,8.269,8.269,0,0,1-2.17-6.007,9.37,9.37,0,0,1,2.022-6.157,6.965,6.965,0,0,1,5.719-2.624,6.1,6.1,0,0,1,5.354,2.624A8.828,8.828,0,0,1,645.064,230.058Zm-3.466-.943a4.921,4.921,0,0,0-.706-2.794A3.174,3.174,0,0,0,638,224.8a3.445,3.445,0,0,0-2.893,1.481,5.428,5.428,0,0,0-1.075,2.826Z" transform="translate(-509.16 -215.99)" fill="#fff"/>
  </g>
  <g id="Group_5" data-name="Group 5" transform="translate(73.68 11.17)">
    <path id="Path_20" data-name="Path 20" d="M528.1,90.364h-1.9l-1.041-3.275h-3.622l-.994,3.275h-1.853l3.59-11.15h2.216Zm-3.259-4.648L523.9,82.8c-.1-.3-.281-.992-.563-2.1H523.3c-.116.479-.281,1.174-.53,2.1l-.926,2.911Zm12.236-3.39-3.044,8.039H532.3l-2.945-8.039h1.919l1.374,4.251c.232.711.43,1.389.578,2.034h.049c.133-.578.331-1.256.578-2.034l1.357-4.251Zm6.481,8.039-.133-.926h-.049a2.741,2.741,0,0,1-2.349,1.108,2.34,2.34,0,0,1-2.465-2.366c0-1.984,1.72-3.01,4.7-3.01v-.148c0-1.059-.562-1.589-1.67-1.589a3.754,3.754,0,0,0-2.1.6l-.363-1.174a5.147,5.147,0,0,1,2.763-.7c2.1,0,3.16,1.108,3.16,3.326v2.961a11.939,11.939,0,0,0,.116,1.919Zm-.249-4c-1.986,0-2.978.481-2.978,1.621a1.139,1.139,0,0,0,1.224,1.256,1.71,1.71,0,0,0,1.754-1.636ZM549.03,81a1.068,1.068,0,1,1,1.125-1.076A1.05,1.05,0,0,1,549.03,81Zm.927,9.363h-1.786V82.325h1.786Zm4.96,0h-1.786V78.636h1.786Zm7.592,0-.133-.926h-.049a2.741,2.741,0,0,1-2.349,1.108,2.34,2.34,0,0,1-2.465-2.366c0-1.984,1.72-3.01,4.7-3.01v-.148c0-1.059-.562-1.589-1.671-1.589a3.753,3.753,0,0,0-2.1.6l-.365-1.176a5.147,5.147,0,0,1,2.763-.7c2.1,0,3.16,1.108,3.16,3.326v2.961a12.4,12.4,0,0,0,.114,1.919h-1.6Zm-.249-4c-1.986,0-2.978.481-2.978,1.621a1.138,1.138,0,0,0,1.224,1.256,1.71,1.71,0,0,0,1.754-1.636Zm8.977,4.186a2.728,2.728,0,0,1-2.528-1.423h-.036l-.1,1.241h-1.522c.049-.644.067-1.374.067-2.167V78.636H568.9V83.5h.034a2.758,2.758,0,0,1,2.564-1.34c1.936,0,3.293,1.655,3.293,4.069C574.8,88.726,573.288,90.546,571.238,90.546Zm-.363-6.982a2.055,2.055,0,0,0-1.969,2.134V87.1a1.969,1.969,0,0,0,1.938,2.018c1.338,0,2.134-1.091,2.134-2.828C572.976,84.674,572.148,83.564,570.874,83.564Zm8.347,6.8h-1.784V78.636h1.784Zm9.725-3.59h-5.363a2.307,2.307,0,0,0,2.531,2.381,6.031,6.031,0,0,0,2.167-.38l.278,1.241a6.7,6.7,0,0,1-2.7.5,3.732,3.732,0,0,1-4-4.052c0-2.465,1.524-4.318,3.8-4.318,2.051,0,3.343,1.522,3.343,3.822A3.37,3.37,0,0,1,588.946,86.774ZM587.308,85.5c0-1.241-.629-2.117-1.771-2.117a2.122,2.122,0,0,0-1.953,2.117Zm12.467,5.046a3.826,3.826,0,0,1-3.871-4.135,3.916,3.916,0,0,1,4.006-4.251,3.8,3.8,0,0,1,3.871,4.12A3.94,3.94,0,0,1,599.775,90.546Zm.068-7.081c-1.29,0-2.117,1.207-2.117,2.894,0,1.655.844,2.862,2.1,2.862s2.1-1.29,2.1-2.9C601.926,84.689,601.1,83.465,599.843,83.465Zm13.54,6.9H611.6V85.748c0-1.422-.546-2.134-1.621-2.134a1.857,1.857,0,0,0-1.788,1.969v4.781H606.4V84.623c0-.711-.019-1.473-.066-2.3h1.572l.084,1.241h.049a2.884,2.884,0,0,1,2.547-1.406c1.686,0,2.794,1.29,2.794,3.39v4.816Zm11.689-6.7h-1.965v3.9q0,1.491,1.04,1.49a3.536,3.536,0,0,0,.794-.084l.05,1.357a3.978,3.978,0,0,1-1.388.2c-1.408,0-2.248-.777-2.248-2.813V83.665h-1.173v-1.34h1.173V80.852l1.752-.53v2h1.965Zm9.461,6.7h-1.788V85.782c0-1.439-.546-2.167-1.621-2.167a1.75,1.75,0,0,0-1.785,1.9v4.846h-1.788V78.636h1.788v4.829h.034a2.706,2.706,0,0,1,2.415-1.307c1.7,0,2.745,1.323,2.745,3.425Zm9.128-3.59H638.3a2.305,2.305,0,0,0,2.53,2.381,6.024,6.024,0,0,0,2.167-.38l.28,1.241a6.711,6.711,0,0,1-2.7.5,3.732,3.732,0,0,1-4-4.052c0-2.465,1.524-4.318,3.8-4.318,2.051,0,3.343,1.522,3.343,3.822A3.474,3.474,0,0,1,643.661,86.774ZM642.023,85.5c0-1.241-.627-2.117-1.769-2.117A2.119,2.119,0,0,0,638.3,85.5Z" transform="translate(-518.688 -78.636)" fill="#fff"/>
  </g>
</svg>
