<svg id="APPLE_podcast" data-name="APPLE podcast" xmlns="http://www.w3.org/2000/svg" width="512" height="512" viewBox="0 0 512 512">
  <path id="Path_1" data-name="Path 1" d="M407,512H105A105.119,105.119,0,0,1,0,407V105A105.119,105.119,0,0,1,105,0H407A105.119,105.119,0,0,1,512,105V407A105.119,105.119,0,0,1,407,512Z" fill="#dd86f2"/>
  <path id="Path_3" data-name="Path 3" d="M308.558,340.537l-9.273,74.185A30,30,0,0,1,269.517,441H242.484a30,30,0,0,1-29.768-26.279l-9.273-74.185A52.965,52.965,0,0,1,256,281h0a45,45,0,1,1,45-45,45.051,45.051,0,0,1-45,45h0A52.967,52.967,0,0,1,308.558,340.537ZM256,161a84.931,84.931,0,0,0-71.495,130.883,83.039,83.039,0,0,0-11.076,34.072,115,115,0,1,1,165.143,0A83.049,83.049,0,0,0,327.5,291.884,84.933,84.933,0,0,0,256,161Zm74.838,243.168,4.617-36.938A144.987,144.987,0,0,0,401,246c0-79.953-65.047-145-145-145S111,166.047,111,246a144.987,144.987,0,0,0,65.545,121.23l4.617,36.938C122,376.063,81,315.734,81,246c0-96.495,78.505-175,175-175s175,78.505,175,175C431,315.734,390,376.063,330.838,404.168Z" fill="#fff"/>
</svg>
