<svg xmlns="http://www.w3.org/2000/svg" xmlns:xlink="http://www.w3.org/1999/xlink" width="1410" height="922" viewBox="0 0 1410 922">
  <defs>
    <clipPath id="clip-path">
      <path id="Mask" d="M150,0H1410a0,0,0,0,1,0,0V772a150,150,0,0,1-150,150H0a0,0,0,0,1,0,0V150A150,150,0,0,1,150,0Z" fill="#ffebf2"/>
    </clipPath>
  </defs>
  <g id="bg" clip-path="url(#clip-path)">
    <path id="Shape" d="M275.15,389.362h0a177.817,177.817,0,0,1-19.5-1.269c-6.992-.773-12.363-1.423-15.849-2.088-3.208-.612-4.793-1.228-5.3-2.06a1.663,1.663,0,0,1-.008-1.552c1.1-2.894,9.735-18.248,19.659-34.955,3.86-6.5,10.417-15.5,18.461-25.358a359.347,359.347,0,0,1,24.246-26.958c9.08-9.008,16.466-17.011,16.466-17.839,0-.7-.579-1.051-1.72-1.051-1.88,0-5.235.983-9.446,2.769a118.209,118.209,0,0,0-14.248,7.365,355.608,355.608,0,0,0-35.655,24.978,386.258,386.258,0,0,0-33.628,29.494c-9.011,9-17.283,16.058-18.833,16.058a.259.259,0,0,1-.2-.075c-.712-.817-1.528-3.163-2.359-6.783-.781-3.4-1.561-7.847-2.256-12.855a222.477,222.477,0,0,1-2.262-29.938,115.31,115.31,0,0,1,3.626-28.638,90.546,90.546,0,0,1,4.358-12.613,82.672,82.672,0,0,1,13.855-21.89,89.866,89.866,0,0,1,9.516-9.307,113.834,113.834,0,0,1,24.258-15.416,180.354,180.354,0,0,1,28.091-10.865,273.224,273.224,0,0,1,33.913-7.227c8.808-1.4,28.283-2.621,43.413-2.729l27.445-.2.014,25.473c.006,12.015-.383,22.728-1.19,32.749a253.669,253.669,0,0,1-3.771,28.271,190.728,190.728,0,0,1-6.6,25.071,181.753,181.753,0,0,1-9.679,23.147c-6.472,12.95-12.3,21.821-18.884,28.764s-14.225,12.257-24.759,17.229a115.008,115.008,0,0,1-20.8,7.883A80.126,80.126,0,0,1,275.15,389.362ZM119.375,344c-4.827,0-34.366-12.757-48.626-21-16.434-9.5-41.527-33.479-51.633-49.344A119.9,119.9,0,0,1,11,258.81a106.814,106.814,0,0,1-5.687-15.587C2.321,232.541.7,220.782.21,206.218c-.469-13.98-.166-23.349,1.049-32.339S4.681,155.654,8.882,142c5.444-17.689,13.315-36.007,24.064-56S57.607,43.8,75.475,18.132C82.434,8.134,88.993,0,90.1,0c1.065,0,7.8,4.073,14,8.109S116.969,16.8,117.9,18.1c.548.768,3.958,3.184,7.6,5.386,4.219,2.55,16.37,13.071,31.711,27.458s29.2,28.262,36.174,36.209a247.334,247.334,0,0,1,28.341,40.3,242.742,242.742,0,0,1,19.977,44.7c3.89,12.1,3.323,12.928-15.168,22.082a129.835,129.835,0,0,0-32.679,22.8,105.993,105.993,0,0,0-22.036,30c-4.348,8.979-7.948,19.355-8.024,23.13A37.557,37.557,0,0,1,162.015,281c-.495,1.209-.934,2.014-1.468,2.015-.882,0-2.027-2.261-4.108-7.014-5.149-11.768-11.513-30.229-17.921-51.982S126.232,179.17,121.974,159c-1.4-6.627-3.255-14.7-4.137-18-.887-3.323-2.723-12.295-4.093-20-2.234-12.565-4.009-20.893-5.586-26.209S105.151,87,103.659,87c-2.281,0-2.774,7.813-2.774,44,0,71.648,6.212,140.9,17.043,190,1.7,7.684,2.636,12.641,3.048,16.071.42,3.494.291,5.526-.405,6.393A1.436,1.436,0,0,1,119.375,344Z" transform="matrix(-0.545, -0.839, 0.839, -0.545, 1194.193, 439.994)" fill="none" stroke="#fcf1f5" stroke-miterlimit="10" stroke-width="2"/>
    <path id="Shape_Copy" data-name="Shape Copy" d="M281.213,400.343h0a182.543,182.543,0,0,1-20.022-1.3c-7.178-.793-12.692-1.46-16.27-2.142-3.293-.628-4.92-1.26-5.442-2.114a1.707,1.707,0,0,1-.008-1.593c1.131-2.972,9.995-18.728,20.181-35.87,3.962-6.667,10.693-15.908,18.951-26.022a368.865,368.865,0,0,1,24.889-27.664c9.321-9.244,16.9-17.456,16.9-18.306,0-.715-.594-1.078-1.766-1.078-1.93,0-5.374,1.009-9.7,2.841a121.392,121.392,0,0,0-14.627,7.557,365.066,365.066,0,0,0-36.6,25.632,396.491,396.491,0,0,0-34.52,30.266c-9.249,9.239-17.741,16.477-19.332,16.478a.266.266,0,0,1-.211-.077c-.731-.838-1.568-3.245-2.422-6.96-.8-3.492-1.6-8.054-2.316-13.192a228.186,228.186,0,0,1-2.321-30.721,118.3,118.3,0,0,1,3.722-29.388,92.9,92.9,0,0,1,4.474-12.943A84.828,84.828,0,0,1,219,251.283a92.226,92.226,0,0,1,9.769-9.551,116.859,116.859,0,0,1,24.9-15.819,185.17,185.17,0,0,1,28.836-11.149,280.63,280.63,0,0,1,34.813-7.417c9.044-1.433,29.036-2.689,44.565-2.8l28.173-.2.014,26.14c.006,12.33-.393,23.323-1.221,33.606a260.2,260.2,0,0,1-3.871,29.011,195.651,195.651,0,0,1-6.776,25.727,186.47,186.47,0,0,1-9.936,23.753c-6.644,13.289-12.622,22.392-19.385,29.517s-14.6,12.578-25.415,17.68a118.115,118.115,0,0,1-21.354,8.09A82.274,82.274,0,0,1,281.213,400.343ZM122.315,353c-4.947,0-35.214-13.091-49.824-21.55-16.842-9.749-42.552-34.356-52.9-50.635a123.1,123.1,0,0,1-8.314-15.235,109.707,109.707,0,0,1-5.827-15.995C2.378,238.625.716,226.559.215,211.613c-.481-14.346-.17-23.961,1.074-33.185S4.8,159.726,9.1,145.715c5.578-18.152,13.644-36.95,24.657-57.467s25.268-43.3,43.575-69.642C84.465,8.347,91.186,0,92.316,0c1.091,0,7.99,4.179,14.344,8.322s13.19,8.918,14.142,10.25c.564.79,4.058,3.269,7.788,5.527,4.323,2.616,16.773,13.413,32.492,28.176s29.922,29,37.066,37.156a253.843,253.843,0,0,1,29.039,41.35,249.292,249.292,0,0,1,20.469,45.866c3.986,12.419,3.4,13.266-15.542,22.66A133.037,133.037,0,0,0,198.629,222.7a108.761,108.761,0,0,0-22.579,30.78c-4.455,9.214-8.143,19.862-8.221,23.735a38.621,38.621,0,0,1-1.823,11.138c-.507,1.241-.957,2.067-1.5,2.067-.9,0-2.077-2.321-4.209-7.2-5.276-12.076-11.8-31.02-18.364-53.342s-12.587-46.022-16.951-66.719c-1.433-6.8-3.335-15.087-4.239-18.471-.91-3.415-2.792-12.622-4.194-20.524-2.288-12.892-4.107-21.438-5.723-26.894s-3.08-8-4.61-8c-2.338,0-2.842,8.018-2.842,45.151,0,73.523,6.365,144.587,17.463,194.971,1.738,7.887,2.7,12.974,3.124,16.494.43,3.586.3,5.67-.417,6.559A1.471,1.471,0,0,1,122.315,353Z" transform="matrix(0.545, 0.839, -0.839, 0.545, 205.947, 474.54)" fill="none" stroke="#feeff4" stroke-miterlimit="10" stroke-width="2"/>
  </g>
</svg>
