<svg xmlns="http://www.w3.org/2000/svg" width="15.329" height="15.324" viewBox="0 0 15.329 15.324">
  <g id="Group_165" data-name="Group 165" transform="translate(-3.905 -3.956)">
    <path id="Path_64" data-name="Path 64" d="M19.2,10.953a.625.625,0,1,0-1.246.109A6.407,6.407,0,1,1,13.545,5.52a.625.625,0,1,0,.383-1.19,7.66,7.66,0,1,0-2.365,14.949q.338,0,.68-.029A7.659,7.659,0,0,0,19.2,10.953Z" transform="translate(0 0)" fill="#0a2360"/>
    <path id="Path_65" data-name="Path 65" d="M34.909,29.751a.626.626,0,1,0-.894.877L37.2,33.864h0l.023.02.023.022.026.019.024.018.028.017.026.015.031.014L37.4,34l.033.011.024.009.037.009h.282l.037-.009.023-.008L37.874,34l.024-.011.032-.014.024-.014.029-.017.023-.017.027-.02.022-.019.024-.022h0l6.655-6.655a.626.626,0,0,0-.885-.885l-6.208,6.208Z" transform="translate(-26.11 -20.229)" fill="#ea1b64"/>
  </g>
</svg>
