<svg id="Group_23" data-name="Group 23" xmlns="http://www.w3.org/2000/svg" width="154.365" height="122.404" viewBox="0 0 154.365 122.404">
  <circle id="Ellipse_6" data-name="Ellipse 6" cx="7.143" cy="7.143" r="7.143" transform="translate(12.039 0) rotate(57.426)" fill="rgba(234,27,100,0.1)"/>
  <circle id="Ellipse_7" data-name="Ellipse 7" cx="7.143" cy="7.143" r="7.143" transform="translate(45.698 0.452) rotate(57.426)" fill="rgba(234,27,100,0.1)"/>
  <circle id="Ellipse_8" data-name="Ellipse 8" cx="7.143" cy="7.143" r="7.143" transform="translate(79.356 0.452) rotate(57.426)" fill="rgba(234,27,100,0.1)"/>
  <circle id="Ellipse_9" data-name="Ellipse 9" cx="7.143" cy="7.143" r="7.143" transform="translate(113.015 0.452) rotate(57.426)" fill="rgba(234,27,100,0.1)"/>
  <circle id="Ellipse_10" data-name="Ellipse 10" cx="7.143" cy="7.143" r="7.143" transform="translate(146.673 0.452) rotate(57.426)" fill="rgba(234,27,100,0.1)"/>
  <circle id="Ellipse_11" data-name="Ellipse 11" cx="7.143" cy="7.143" r="7.143" transform="translate(12.039 25.384) rotate(57.426)" fill="rgba(234,27,100,0.1)"/>
  <circle id="Ellipse_12" data-name="Ellipse 12" cx="7.143" cy="7.143" r="7.143" transform="translate(45.698 25.836) rotate(57.426)" fill="rgba(234,27,100,0.1)"/>
  <circle id="Ellipse_13" data-name="Ellipse 13" cx="7.143" cy="7.143" r="7.143" transform="translate(79.356 25.836) rotate(57.426)" fill="rgba(234,27,100,0.1)"/>
  <circle id="Ellipse_14" data-name="Ellipse 14" cx="7.143" cy="7.143" r="7.143" transform="translate(113.015 25.836) rotate(57.426)" fill="rgba(234,27,100,0.1)"/>
  <circle id="Ellipse_15" data-name="Ellipse 15" cx="7.143" cy="7.143" r="7.143" transform="translate(146.673 25.836) rotate(57.426)" fill="rgba(234,27,100,0.1)"/>
  <circle id="Ellipse_16" data-name="Ellipse 16" cx="7.143" cy="7.143" r="7.143" transform="translate(12.039 51.563) rotate(57.426)" fill="rgba(234,27,100,0.1)"/>
  <circle id="Ellipse_17" data-name="Ellipse 17" cx="7.143" cy="7.143" r="7.143" transform="translate(45.698 52.015) rotate(57.426)" fill="rgba(234,27,100,0.1)"/>
  <circle id="Ellipse_18" data-name="Ellipse 18" cx="7.143" cy="7.143" r="7.143" transform="translate(79.356 52.015) rotate(57.426)" fill="rgba(234,27,100,0.1)"/>
  <circle id="Ellipse_19" data-name="Ellipse 19" cx="7.143" cy="7.143" r="7.143" transform="translate(113.015 52.015) rotate(57.426)" fill="rgba(234,27,100,0.1)"/>
  <circle id="Ellipse_20" data-name="Ellipse 20" cx="7.143" cy="7.143" r="7.143" transform="translate(146.673 52.015) rotate(57.426)" fill="rgba(234,27,100,0.1)"/>
  <circle id="Ellipse_21" data-name="Ellipse 21" cx="7.143" cy="7.143" r="7.143" transform="translate(12.039 77.742) rotate(57.426)" fill="rgba(234,27,100,0.1)"/>
  <circle id="Ellipse_22" data-name="Ellipse 22" cx="7.143" cy="7.143" r="7.143" transform="translate(45.698 78.193) rotate(57.426)" fill="rgba(234,27,100,0.1)"/>
  <circle id="Ellipse_26" data-name="Ellipse 26" cx="7.143" cy="7.143" r="7.143" transform="translate(12.039 102.222) rotate(57.426)" fill="rgba(234,27,100,0.1)"/>
  <circle id="Ellipse_27" data-name="Ellipse 27" cx="7.143" cy="7.143" r="7.143" transform="translate(45.698 102.674) rotate(57.426)" fill="rgba(234,27,100,0.1)"/>
  <circle id="Ellipse_28" data-name="Ellipse 28" cx="7.143" cy="7.143" r="7.143" transform="translate(79.356 102.674) rotate(57.426)" fill="rgba(234,27,100,0.1)"/>
  <circle id="Ellipse_29" data-name="Ellipse 29" cx="7.143" cy="7.143" r="7.143" transform="translate(113.015 102.674) rotate(57.426)" fill="rgba(234,27,100,0.1)"/>
  <circle id="Ellipse_30" data-name="Ellipse 30" cx="7.143" cy="7.143" r="7.143" transform="translate(146.673 102.674) rotate(57.426)" fill="rgba(234,27,100,0.1)"/>
  <circle id="Ellipse_23" data-name="Ellipse 23" cx="7.143" cy="7.143" r="7.143" transform="translate(79.356 78.193) rotate(57.426)" fill="rgba(234,27,100,0.1)"/>
  <circle id="Ellipse_24" data-name="Ellipse 24" cx="7.143" cy="7.143" r="7.143" transform="translate(113.015 78.193) rotate(57.426)" fill="rgba(234,27,100,0.1)"/>
  <circle id="Ellipse_25" data-name="Ellipse 25" cx="7.143" cy="7.143" r="7.143" transform="translate(146.673 78.193) rotate(57.426)" fill="rgba(234,27,100,0.1)"/>
</svg>
