<svg id="Form" xmlns="http://www.w3.org/2000/svg" xmlns:xlink="http://www.w3.org/1999/xlink" width="1410" height="958" viewBox="0 0 1410 958">
  <defs>
    <clipPath id="clip-path">
      <path id="Mask" d="M150,0H1410a0,0,0,0,1,0,0V772a150,150,0,0,1-150,150H0a0,0,0,0,1,0,0V150A150,150,0,0,1,150,0Z" fill="#ffebf2"/>
    </clipPath>
    <filter id="bg" x="565" y="782" width="366" height="176" filterUnits="userSpaceOnUse">
      <feOffset dy="10" input="SourceAlpha"/>
      <feGaussianBlur stdDeviation="20" result="blur"/>
      <feFlood flood-color="#2baba0" flood-opacity="0.071"/>
      <feComposite operator="in" in2="blur"/>
      <feComposite in="SourceGraphic"/>
    </filter>
  </defs>
  <g id="form-2" data-name="form">
    <g id="bg-2" data-name="bg">
      <g id="Group_208" data-name="Group 208">
        <path id="Mask-2" data-name="Mask" d="M150,0H1410a0,0,0,0,1,0,0V783a150,150,0,0,1-150,150H0a0,0,0,0,1,0,0V150A150,150,0,0,1,150,0Z" fill="#fdfbff"/>
        <g id="bg-3" data-name="bg" clip-path="url(#clip-path)">
          <path id="Shape" d="M285.2,396.082h0a184.737,184.737,0,0,1-19.932-1.547c-7.15-.875-12.643-1.6-16.211-2.323-3.284-.661-4.911-1.3-5.441-2.15a1.664,1.664,0,0,1-.029-1.566c1.083-2.9,9.69-18.277,19.595-35,3.853-6.5,10.424-15.5,18.5-25.331A349.69,349.69,0,0,1,306.066,301.3c9.148-8.964,16.581-16.937,16.569-17.772-.01-.7-.605-1.068-1.771-1.084-1.92-.026-5.332.92-9.607,2.664a117.363,117.363,0,0,0-14.448,7.235,349.737,349.737,0,0,0-36.065,24.712,377.543,377.543,0,0,0-33.932,29.3c-9.077,8.961-17.428,15.964-19.01,15.943a.273.273,0,0,1-.21-.079c-.738-.834-1.6-3.212-2.5-6.875-.844-3.443-1.7-7.939-2.479-13a223.264,223.264,0,0,1-2.719-30.235,113.9,113.9,0,0,1,3.311-28.843,88.382,88.382,0,0,1,4.278-12.665,80.3,80.3,0,0,1,13.848-21.895,87.64,87.64,0,0,1,9.59-9.26,112.278,112.278,0,0,1,24.558-15.221,180.633,180.633,0,0,1,28.534-10.578,277.406,277.406,0,0,1,34.529-6.828c8.975-1.288,28.843-2.257,44.29-2.159l28.02.176.363,25.7c.17,12.122-.081,22.924-.767,33.023a250.431,250.431,0,0,1-3.464,28.471,186.851,186.851,0,0,1-6.4,25.2,177,177,0,0,1-9.566,23.22c-6.431,12.976-12.256,21.846-18.888,28.761s-14.357,12.172-25.045,17.043a115.273,115.273,0,0,1-21.133,7.669A82.012,82.012,0,0,1,285.2,396.082Zm-159.676-47.9c-4.929-.066-35.265-13.34-49.938-21.851-16.91-9.807-42.859-34.344-53.4-50.489A124.724,124.724,0,0,1,13.7,260.757a109.8,109.8,0,0,1-6.02-15.8c-3.2-10.818-5.021-22.7-5.72-37.4-.67-14.11-.488-23.559.628-32.612s3.246-18.34,7.348-32.058c5.317-17.772,13.1-36.145,23.8-56.17s24.6-42.232,42.5-67.888C83.206,8.832,89.792.715,90.918.73c1.088.015,8.018,4.216,14.4,8.373s13.264,8.944,14.23,10.267c.57.783,4.085,3.267,7.833,5.537,4.343,2.63,16.894,13.411,32.754,28.136s30.2,28.913,37.432,37.025a259.23,259.23,0,0,1,29.49,41.041,250.951,250.951,0,0,1,21.009,45.367c4.137,12.263,3.569,13.088-15.185,22.071A127.717,127.717,0,0,0,199.83,221.1a102.99,102.99,0,0,0-22.09,29.96c-4.317,9-7.85,19.418-7.877,23.226A37,37,0,0,1,168.2,285.21c-.489,1.213-.926,2.02-1.472,2.012-.9-.012-2.1-2.309-4.29-7.133-5.418-11.943-12.169-30.655-19.01-52.689s-13.157-45.414-17.781-65.822c-1.519-6.705-3.525-14.877-4.471-18.217-.951-3.365-2.949-12.441-4.453-20.233-2.453-12.707-4.379-21.133-6.062-26.518s-3.176-7.9-4.7-7.922c-2.329-.031-2.725,7.845-2.23,44.353.98,72.285,8.27,142.237,20,191.921,1.836,7.776,2.864,12.789,3.332,16.256.477,3.531.373,5.579-.326,6.444A1.433,1.433,0,0,1,125.519,348.186Z" transform="matrix(-0.545, -0.839, 0.839, -0.545, 1194.028, 451.994)" fill="none" stroke="#fcf1f5" stroke-miterlimit="10" stroke-width="2"/>
          <path id="Shape_Copy" data-name="Shape Copy" d="M291.508,407.232h0a189.659,189.659,0,0,1-20.462-1.588c-7.34-.9-12.979-1.647-16.642-2.384-3.371-.678-5.041-1.338-5.586-2.207a1.708,1.708,0,0,1-.03-1.607c1.114-2.983,9.949-18.757,20.115-35.912,3.954-6.672,10.7-15.9,18.994-25.994a358.955,358.955,0,0,1,25.035-27.569c9.391-9.2,17.021-17.38,17.009-18.237-.01-.722-.621-1.1-1.818-1.112-1.971-.026-5.473.945-9.863,2.734a120.519,120.519,0,0,0-14.832,7.424,359.053,359.053,0,0,0-37.022,25.359A387.554,387.554,0,0,0,231.575,356.2c-9.318,9.195-17.889,16.381-19.514,16.36a.28.28,0,0,1-.216-.081c-.758-.856-1.646-3.3-2.568-7.055-.867-3.534-1.747-8.147-2.545-13.34a228.991,228.991,0,0,1-2.79-31.026,116.849,116.849,0,0,1,3.4-29.6,90.679,90.679,0,0,1,4.391-13A82.395,82.395,0,0,1,225.946,256a89.945,89.945,0,0,1,9.844-9.5A115.262,115.262,0,0,1,261,230.875a185.454,185.454,0,0,1,29.291-10.854,284.927,284.927,0,0,1,35.445-7.006c9.215-1.322,29.611-2.316,45.466-2.215l28.763.18.372,26.372c.175,12.44-.082,23.524-.787,33.888A256.887,256.887,0,0,1,396,300.455a191.674,191.674,0,0,1-6.567,25.863,181.587,181.587,0,0,1-9.821,23.828c-6.6,13.316-12.582,22.419-19.389,29.514s-14.737,12.49-25.709,17.489a118.387,118.387,0,0,1-21.693,7.869A84.211,84.211,0,0,1,291.508,407.232ZM128.616,357.294c-5.051-.068-36.134-13.689-51.168-22.423-17.33-10.066-43.918-35.244-54.711-51.808a128.053,128.053,0,0,1-8.7-15.484,112.77,112.77,0,0,1-6.169-16.217c-3.283-11.1-5.146-23.3-5.861-38.381-.687-14.48-.5-24.176.643-33.465s3.325-18.82,7.529-32.9c5.448-18.237,13.426-37.091,24.39-57.64S59.78,45.642,78.113,19.315C85.254,9.062,92,.733,93.156.748c1.114.015,8.216,4.326,14.76,8.592s13.59,9.178,14.58,10.534c.587.8,4.188,3.354,8.027,5.683,4.45,2.7,17.31,13.761,33.561,28.871S195.034,84.1,202.44,92.42a266.039,266.039,0,0,1,30.216,42.114,257.715,257.715,0,0,1,21.528,46.553c4.24,12.584,3.658,13.43-15.56,22.649a130.862,130.862,0,0,0-33.869,23.143,105.679,105.679,0,0,0-22.633,30.745c-4.423,9.235-8.043,19.927-8.07,23.833a38.049,38.049,0,0,1-1.71,11.212c-.5,1.245-.949,2.072-1.508,2.065-.922-.012-2.152-2.37-4.4-7.319-5.552-12.255-12.47-31.457-19.48-54.067s-13.482-46.6-18.22-67.544c-1.557-6.881-3.612-15.267-4.581-18.693-.976-3.458-3.023-12.772-4.563-20.763-2.513-13.038-4.487-21.684-6.212-27.211s-3.255-8.109-4.816-8.129c-2.387-.032-2.792,8.05-2.284,45.513,1.006,74.176,8.477,145.959,20.5,196.941,1.882,7.981,2.936,13.126,3.415,16.683.489,3.623.382,5.724-.336,6.612A1.468,1.468,0,0,1,128.616,357.294Z" transform="matrix(0.545, 0.839, -0.839, 0.545, 206.117, 489.956)" fill="none" stroke="#feeff4" stroke-miterlimit="10" stroke-width="2"/>
        </g>
      </g>
      <text id="Joining_Our_Team" data-name="Joining Our Team" transform="translate(95 330.5)" fill="#0a2360" font-size="32" font-family="Quicksand-SemiBold, Quicksand" font-weight="600" opacity="0.5"><tspan x="0" y="32">General Inquiries</tspan></text>
      <g id="New_Project_Selected" data-name="New Project Selected" transform="translate(-113 -13.5)">
        <text id="New_Project" data-name="New Project" transform="translate(220 260.5)" fill="#ea1b64" font-size="32" font-family="Quicksand-Bold, Quicksand" font-weight="700"><tspan x="0" y="32">Software Demo</tspan></text>
        <rect id="Sellected_Indicator" data-name="Sellected Indicator" width="4" height="43" transform="translate(208 256)" fill="#ea1b64"/>
      </g>
      <text id="Have_a_project_in_mind_that_you_think_we_d_be_a_great_fit_for_it_We_d_love_to_know_what_you_re_thinking" data-name="Have a project in mind that you think we’d be a great fit for it? We’d love to know what you’re thinking" transform="translate(625 98.5)" fill="#0a2360" font-size="18" font-family="Quicksand-Medium, Quicksand" font-weight="500" opacity="0.5"><tspan x="0" y="18">Do you have any questions or want to learn more about </tspan><tspan x="0" y="42">our services?</tspan></text>
      <text id="Let_s_Talk_About_:" data-name="Let’s Talk About :" transform="translate(95 90.5)" fill="#0a2360" font-size="55" font-family="Quicksand-SemiBold, Quicksand" font-weight="600"><tspan x="0" y="55">Talk to us :</tspan></text>
    </g>
    <g id="form-3" data-name="form" transform="translate(625 202)">
      <g id="button_main" data-name="button main" transform="translate(0 630)">
        <g transform="matrix(1, 0, 0, 1, -625, -832)" filter="url(#bg)">
          <rect id="bg-4" data-name="bg" width="246" height="56" rx="28" transform="translate(625 832)" fill="#ea1b64"/>
        </g>
        <text id="Get_A_Consultation" data-name="Get A Consultation" transform="translate(46 34.5)" fill="#fff" font-size="18" font-family="Quicksand-Medium, Quicksand" font-weight="500"><tspan x="0" y="0">Get a consultation</tspan></text>
      </g>
      <g id="input_section" data-name="input section" transform="translate(0 116)">
        <g id="Group" transform="translate(0 24)">
          <g id="Rectangle" fill="#fff" stroke="#ffebf2" stroke-miterlimit="10" stroke-width="1">
            <rect width="330" height="54" rx="27" stroke="none"/>
            <rect x="0.5" y="0.5" width="329" height="53" rx="26.5" fill="none"/>
          </g>
          <text id="SELECT_section" data-name="SELECT section" transform="translate(20 16)" fill="#0a2360" font-size="16" font-family="OpenSans-Regular, Open Sans" opacity="0.5"><tspan x="0" y="17">Your Job Title</tspan></text>
        </g>
        <text id="Section" transform="translate(20 14)" fill="#0a2360" font-size="14" font-family="Quicksand-SemiBold, Quicksand" font-weight="600"><tspan x="0" y="0">Job Title</tspan></text>
      </g>
      <g id="input_section-2" data-name="input section" transform="translate(7 452)">
        <g id="Group-2" data-name="Group" transform="translate(0 24)">
          <g id="Rectangle-2" data-name="Rectangle" fill="#fff" stroke="#ffebf2" stroke-miterlimit="10" stroke-width="1">
            <rect width="683" height="116" rx="15" stroke="none"/>
            <rect x="0.5" y="0.5" width="682" height="115" rx="14.5" fill="none"/>
          </g>
          <text id="SELECT_section-2" data-name="SELECT section" transform="translate(20 14)" fill="#0a2360" font-size="16" font-family="OpenSans-Regular, Open Sans" opacity="0.5"><tspan x="0" y="17">Tell Us More About What You Are Looking For</tspan></text>
        </g>
        <text id="Section-2" data-name="Section" transform="translate(20 14)" fill="#0a2360" font-size="14" font-family="Quicksand-SemiBold, Quicksand" font-weight="600"><tspan x="0" y="0">Description</tspan></text>
      </g>
      <g id="input_section-3" data-name="input section" transform="translate(0 228)">
        <g id="Group-3" data-name="Group" transform="translate(0 24)">
          <g id="Rectangle-3" data-name="Rectangle" fill="#fff" stroke="#ffebf2" stroke-miterlimit="10" stroke-width="1">
            <rect width="330" height="54" rx="27" stroke="none"/>
            <rect x="0.5" y="0.5" width="329" height="53" rx="26.5" fill="none"/>
          </g>
          <text id="SELECT_section-3" data-name="SELECT section" transform="translate(20 16)" fill="#0a2360" font-size="16" font-family="OpenSans-Regular, Open Sans" opacity="0.5"><tspan x="0" y="17">Your Company Name</tspan></text>
        </g>
        <text id="Section-3" data-name="Section" transform="translate(20 14)" fill="#0a2360" font-size="14" font-family="Quicksand-SemiBold, Quicksand" font-weight="600"><tspan x="0" y="0">Company Name</tspan></text>
      </g>
      <g id="input_section-4" data-name="input section" transform="translate(0 340)">
        <g id="Group-4" data-name="Group" transform="translate(0 24)">
          <g id="Rectangle-4" data-name="Rectangle" fill="#fff" stroke="#ffebf2" stroke-miterlimit="10" stroke-width="1">
            <rect width="330" height="54" rx="27" stroke="none"/>
            <rect x="0.5" y="0.5" width="329" height="53" rx="26.5" fill="none"/>
          </g>
          <text id="SELECT_section-4" data-name="SELECT section" transform="translate(20 16)" fill="#0a2360" font-size="16" font-family="OpenSans-Regular, Open Sans" opacity="0.5"><tspan x="0" y="17">Select Your City</tspan></text>
          <path id="Path" d="M7.017,8a.98.98,0,0,1-.695-.288L.288,1.678A.983.983,0,0,1,1.678.288l5.339,5.34L12.357.288a.983.983,0,1,1,1.39,1.39L7.712,7.712A.98.98,0,0,1,7.017,8Z" transform="translate(295.5 23)" fill="#8c8f92"/>
        </g>
        <text id="Section-4" data-name="Section" transform="translate(20 14)" fill="#0a2360" font-size="14" font-family="Quicksand-SemiBold, Quicksand" font-weight="600"><tspan x="0" y="0">State</tspan></text>
      </g>
      <g id="input_date" data-name="input date" transform="translate(360 116)">
        <g id="Group-5" data-name="Group" transform="translate(0 24)">
          <g id="Rectangle-5" data-name="Rectangle" fill="#fff" stroke="#ffebf2" stroke-miterlimit="10" stroke-width="1">
            <rect width="330" height="54" rx="27" stroke="none"/>
            <rect x="0.5" y="0.5" width="329" height="53" rx="26.5" fill="none"/>
          </g>
          <text id="SELECT_section-5" data-name="SELECT section" transform="translate(20 16)" fill="#0a2360" font-size="16" font-family="Quicksand-Regular, Quicksand" opacity="0.5"><tspan x="0" y="16">Enter Your E-mail Address</tspan></text>
        </g>
        <text id="Section-5" data-name="Section" transform="translate(20 14)" fill="#0a2360" font-size="14" font-family="Quicksand-SemiBold, Quicksand" font-weight="600"><tspan x="0" y="0">Email address</tspan></text>
      </g>
      <g id="input_date-2" data-name="input date" transform="translate(360 228)">
        <g id="Group-6" data-name="Group" transform="translate(0 24)">
          <g id="Rectangle-6" data-name="Rectangle" fill="#fff" stroke="#ffebf2" stroke-miterlimit="10" stroke-width="1">
            <rect width="330" height="54" rx="27" stroke="none"/>
            <rect x="0.5" y="0.5" width="329" height="53" rx="26.5" fill="none"/>
          </g>
          <text id="SELECT_section-6" data-name="SELECT section" transform="translate(20 16)" fill="#0a2360" font-size="16" font-family="Quicksand-Regular, Quicksand" opacity="0.5"><tspan x="0" y="16">Select Your City</tspan></text>
          <path id="Path-2" data-name="Path" d="M7.017,8a.98.98,0,0,1-.695-.288L.288,1.678A.983.983,0,0,1,1.678.288l5.339,5.34L12.357.288a.983.983,0,1,1,1.39,1.39L7.712,7.712A.98.98,0,0,1,7.017,8Z" transform="translate(295.5 23)" fill="#8c8f92"/>
        </g>
        <text id="Section-6" data-name="Section" transform="translate(20 14)" fill="#0a2360" font-size="14" font-family="Quicksand-SemiBold, Quicksand" font-weight="600"><tspan x="0" y="0">City</tspan></text>
      </g>
      <g id="input_date-3" data-name="input date" transform="translate(360 340)">
        <g id="Group-7" data-name="Group" transform="translate(0 24)">
          <g id="Rectangle-7" data-name="Rectangle" fill="#fff" stroke="#ffebf2" stroke-miterlimit="10" stroke-width="1">
            <rect width="330" height="54" rx="27" stroke="none"/>
            <rect x="0.5" y="0.5" width="329" height="53" rx="26.5" fill="none"/>
          </g>
          <text id="SELECT_section-7" data-name="SELECT section" transform="translate(20 16)" fill="#0a2360" font-size="16" font-family="Quicksand-Regular, Quicksand" opacity="0.5"><tspan x="0" y="16">Select Your Country</tspan></text>
          <path id="Path-3" data-name="Path" d="M7.017,8a.98.98,0,0,1-.695-.288L.288,1.678A.983.983,0,0,1,1.678.288l5.339,5.34L12.357.288a.983.983,0,1,1,1.39,1.39L7.712,7.712A.98.98,0,0,1,7.017,8Z" transform="translate(295.5 22)" fill="#8c8f92"/>
        </g>
        <text id="Section-7" data-name="Section" transform="translate(20 14)" fill="#0a2360" font-size="14" font-family="Quicksand-SemiBold, Quicksand" font-weight="600"><tspan x="0" y="0">Country</tspan></text>
      </g>
      <g id="input_name" data-name="input name" transform="translate(0 4)">
        <g id="Group-8" data-name="Group" transform="translate(0 24)">
          <g id="Rectangle-8" data-name="Rectangle" fill="#fff" stroke="#ffebf2" stroke-miterlimit="10" stroke-width="1">
            <rect width="330" height="54" rx="27" stroke="none"/>
            <rect x="0.5" y="0.5" width="329" height="53" rx="26.5" fill="none"/>
          </g>
          <text id="Name" transform="translate(20 16)" fill="#0a2360" font-size="16" font-family="Quicksand-Medium, Quicksand" font-weight="500" opacity="0.5"><tspan x="0" y="16">Your name</tspan></text>
        </g>
        <text id="Name-2" data-name="Name" transform="translate(20 14)" fill="#0a2360" font-size="14" font-family="Quicksand-SemiBold, Quicksand" font-weight="600"><tspan x="0" y="0">Name</tspan></text>
      </g>
      <g id="input_phone" data-name="input phone" transform="translate(360 4)">
        <g id="Group-9" data-name="Group" transform="translate(0 24)">
          <g id="Rectangle-9" data-name="Rectangle" fill="#fff" stroke="#ffebf2" stroke-miterlimit="10" stroke-width="1">
            <rect width="330" height="54" rx="27" stroke="none"/>
            <rect x="0.5" y="0.5" width="329" height="53" rx="26.5" fill="none"/>
          </g>
          <text id="Name-3" data-name="Name" transform="translate(20 16)" fill="#0a2360" font-size="16" font-family="Quicksand-Medium, Quicksand" font-weight="500" opacity="0.5"><tspan x="0" y="16">Last Name</tspan></text>
        </g>
        <text id="Name-4" data-name="Name" transform="translate(20 14)" fill="#0a2360" font-size="14" font-family="Quicksand-SemiBold, Quicksand" font-weight="600"><tspan x="0" y="0">Last Name</tspan></text>
      </g>
    </g>
  </g>
</svg>
