<svg xmlns="http://www.w3.org/2000/svg" width="44.492" height="50.287" viewBox="0 0 44.492 50.287">
  <g id="health-insurance" transform="translate(-0.501 0)">
    <path id="Path_38" data-name="Path 38" d="M226.36,200.2a.983.983,0,0,0-.983-.983H216.73a.983.983,0,0,0,0,1.966h8.648A.983.983,0,0,0,226.36,200.2Zm0,0" transform="translate(-194.105 -179.649)" fill="#ea1b64"/>
    <path id="Path_39" data-name="Path 39" d="M70.342,99.125H68.52a2.037,2.037,0,0,0-2.036,2.033v.946h-.948a2.039,2.039,0,0,0-2.036,2.036v1.824A2.038,2.038,0,0,0,65.536,108h.948v.946a2.038,2.038,0,0,0,2.036,2.036h1.822a2.038,2.038,0,0,0,2.036-2.036V108h.948a2.038,2.038,0,0,0,2.036-2.035v-1.824a2.038,2.038,0,0,0-2.036-2.036h-.948v-.946A2.037,2.037,0,0,0,70.342,99.125Zm2.984,4.945a.072.072,0,0,1,.07.069v1.824a.072.072,0,0,1-.07.069H71.4a.983.983,0,0,0-.983.983v1.929a.072.072,0,0,1-.07.069H68.52a.072.072,0,0,1-.07-.069v-1.929a.984.984,0,0,0-.983-.983H65.536a.072.072,0,0,1-.07-.069v-1.824a.072.072,0,0,1,.07-.069h1.931a.983.983,0,0,0,.983-.983v-1.929a.072.072,0,0,1,.07-.066h1.822a.072.072,0,0,1,.07.066v1.929a.983.983,0,0,0,.983.983Zm0,0" transform="translate(-56.812 -89.389)" fill="#ea1b64"/>
    <path id="Path_40" data-name="Path 40" d="M226.789,140.471a.983.983,0,0,0-.983-.983h-9.077a.983.983,0,0,0,0,1.966h9.077A.983.983,0,0,0,226.789,140.471Zm0,0" transform="translate(-194.105 -125.788)" fill="#ea1b64"/>
    <path id="Path_41" data-name="Path 41" d="M71.206,260.877H93.714a.983.983,0,0,0,0-1.966H71.206a.983.983,0,1,0,0,1.966Zm0,0" transform="translate(-62.874 -233.481)" fill="#ea1b64"/>
    <path id="Path_42" data-name="Path 42" d="M44.157,31.059a25.114,25.114,0,0,1-5.642-1.422V21.089a.983.983,0,1,0-1.966,0v7.464a4.859,4.859,0,0,1-.585-.521.983.983,0,0,0-1.428,0c-1.3,1.377-4.06,2.395-8.2,3.026a.978.978,0,0,0-.5.234H8.332a.983.983,0,1,0,0,1.966H25.5v3.9H7.671a.983.983,0,1,0,0,1.966H25.584A12.363,12.363,0,0,0,29,45.972H5.27a2.8,2.8,0,0,1-2.8-2.8V6.935a2.8,2.8,0,0,1,2.8-2.8H9.962V4.5a1.808,1.808,0,0,0,1.808,1.8H27.246a1.808,1.808,0,0,0,1.808-1.8V4.138h4.692a2.8,2.8,0,0,1,2.8,2.8v6.311a.983.983,0,1,0,1.966,0V6.935a4.772,4.772,0,0,0-4.769-4.764H29.054V1.8A1.808,1.808,0,0,0,27.246,0H11.77A1.808,1.808,0,0,0,9.962,1.8v.367H5.27A4.772,4.772,0,0,0,.5,6.935V43.174A4.772,4.772,0,0,0,5.27,47.938H31.113c1.77,1.519,2.862,2.347,4.131,2.348h0c1.427,0,2.628-1.04,4.808-2.925,3.08-2.667,4.741-5.708,4.935-9.038,0-.019,0-.038,0-.057V32.03a.984.984,0,0,0-.835-.972ZM11.928,1.966H27.088V4.34H11.928Zm31.1,36.27c-.17,2.77-1.6,5.34-4.257,7.638-1.7,1.473-2.827,2.446-3.522,2.446h0c-.69,0-1.753-.921-3.515-2.445-2.655-2.3-4.087-4.867-4.26-7.638v-5.37c3.595-.619,6.157-1.551,7.779-2.832a9.613,9.613,0,0,0,1.794,1.1.966.966,0,0,0,.14.066,23.4,23.4,0,0,0,5.843,1.669Zm0,0" fill="#ea1b64"/>
    <path id="Path_43" data-name="Path 43" d="M311.545,360.6l-1.729-1.622a.983.983,0,0,0-1.345,1.434l2.457,2.3a.982.982,0,0,0,.673.266h.039a.983.983,0,0,0,.688-.321l4.984-5.479a.983.983,0,1,0-1.454-1.323Zm0,0" transform="translate(-277.442 -320.618)" fill="#ea1b64"/>
    <path id="Path_44" data-name="Path 44" d="M368.514,164.6a.983.983,0,0,0-.983.983v.016a.983.983,0,0,0,1.966,0v-.016A.983.983,0,0,0,368.514,164.6Zm0,0" transform="translate(-330.982 -148.435)" fill="#ea1b64"/>
  </g>
</svg>
