<svg xmlns="http://www.w3.org/2000/svg" xmlns:xlink="http://www.w3.org/1999/xlink" width="915" height="752" viewBox="0 0 915 752">
  <defs>
    <clipPath id="clip-path">
      <rect id="Rectangle_67" data-name="Rectangle 67" width="915" height="752" transform="translate(1005 200)" fill="#fff"/>
    </clipPath>
    <linearGradient id="linear-gradient" x1="0.954" y1="0.888" x2="0.064" y2="0.079" gradientUnits="objectBoundingBox">
      <stop offset="0" stop-color="#ea1b64"/>
      <stop offset="1" stop-color="#0a2360"/>
    </linearGradient>
    <linearGradient id="linear-gradient-2" x1="0" y1="0.217" x2="0.873" y2="0.707" xlink:href="#linear-gradient"/>
  </defs>
  <g id="Mask_Group_" data-name="Mask Group " transform="translate(-1005 -200)" clip-path="url(#clip-path)">
    <g id="Group_213" data-name="Group 213">
      <circle id="bg" cx="476" cy="476" r="476" transform="translate(1107)" fill="#f2f7fd"/>
      <g id="Group_212" data-name="Group 212">
        <circle id="Mask" cx="126" cy="126" r="126" transform="translate(1044 365)" fill="#cc4983"/>
        <circle id="Mask-2" data-name="Mask" cx="101" cy="101" r="101" transform="translate(1330 589)" opacity="0.8" fill="url(#linear-gradient)"/>
        <circle id="Mask-3" data-name="Mask" cx="43" cy="43" r="43" transform="translate(1313 855)" fill="#cc4983"/>
        <circle id="_4" data-name="4" cx="60.5" cy="60.5" r="60.5" transform="translate(1411 344)" fill="#0a2360" opacity="0.8"/>
        <ellipse id="_3" data-name="3" cx="25.5" cy="25" rx="25.5" ry="25" transform="translate(1312 502)" opacity="0.8" fill="url(#linear-gradient-2)"/>
        <circle id="_3-2" data-name="3" cx="69" cy="69" r="69" transform="translate(1126 694)" fill="#3b4f7f"/>
        <ellipse id="_2" data-name="2" cx="39.5" cy="39" rx="39.5" ry="39" transform="translate(1005 620)" fill="#0a2360" opacity="0.8"/>
        <ellipse id="_1" data-name="1" cx="19.5" cy="19" rx="19.5" ry="19" transform="translate(1200 892)" opacity="0.8" fill="url(#linear-gradient-2)"/>
      </g>
    </g>
  </g>
</svg>
