<svg xmlns="http://www.w3.org/2000/svg" width="46.047" height="41.929" viewBox="0 0 46.047 41.929">
  <g id="noun-language-3325116" transform="translate(-87.869 -41.409)">
    <path id="Path_1221" data-name="Path 1221" d="M128.945,55.311H116.195V46.38a4.828,4.828,0,0,0-4.821-4.821H92.84a4.828,4.828,0,0,0-4.821,4.821v11.59a4.717,4.717,0,0,0,.825,2.689C90.609,64.1,99.013,69.253,99.1,69.329a.76.76,0,0,0,1.1-.932,33.5,33.5,0,0,1-1.528-5.615h6.921v8.939a4.821,4.821,0,0,0,4.821,4.813h12.7a33.492,33.492,0,0,1-1.528,5.615.756.756,0,0,0,1.1.925c.084-.054,8.488-5.233,10.253-8.671h0a4.717,4.717,0,0,0,.825-2.689V60.132a4.828,4.828,0,0,0-4.821-4.821Zm-26.081,5.944h-5.1a.767.767,0,0,0-.756.886,41.491,41.491,0,0,0,1.062,4.691c-2.643-1.788-6.807-4.859-7.846-6.837h0a.98.98,0,0,0-.084-.153,3.241,3.241,0,0,1-.588-1.872V46.379a3.3,3.3,0,0,1,3.293-3.293h18.533a3.3,3.3,0,0,1,3.293,3.293V55.31h-4.255a4.821,4.821,0,0,0-3.751,1.8,3.332,3.332,0,0,0-.81,1.452,4.681,4.681,0,0,0-.26,1.528v1.123Zm29.375,10.467a3.241,3.241,0,0,1-.588,1.872.525.525,0,0,0-.076.145c-1.039,1.979-5.21,5.058-7.854,6.876a41.489,41.489,0,0,0,1.062-4.691.767.767,0,0,0-.756-.886H110.412a3.293,3.293,0,0,1-3.293-3.285V60.131a3.3,3.3,0,0,1,3.293-3.293h18.533a3.3,3.3,0,0,1,3.293,3.293Z" transform="translate(0)" fill="#fff" stroke="#fff" stroke-width="0.3"/>
    <text id="en" transform="translate(110.766 70.559)" fill="#fff" font-size="13" font-family="Quicksand-Bold, Quicksand" font-weight="700"><tspan x="0" y="0">EN</tspan></text>
    <text id="pt" transform="translate(92.766 56.559)" fill="#fff" font-size="13" font-family="Quicksand-Bold, Quicksand" font-weight="700"><tspan x="0" y="0">PT</tspan></text>
  </g>
</svg>
