<svg xmlns="http://www.w3.org/2000/svg" width="38.853" height="40.937" viewBox="0 0 38.853 40.937">
  <g id="teleprompter" transform="translate(-12.28 0.1)">
    <path id="Path_1262" data-name="Path 1262" d="M44.18,32.335a.679.679,0,0,0,.621-.4c.046-.1-.43,1.933,6.138-27.638A3.53,3.53,0,0,0,47.493,0H15.92a3.533,3.533,0,0,0-3.446,4.3c6.541,29.451,6.074,27.589,6.221,27.777a.678.678,0,0,0,.448.256c.066.009-.4.006,6.452.006v2.97a.679.679,0,0,0,.679.679H45.4l1.212,3.395H16.8l1.212-3.395h4.1a.679.679,0,0,0,0-1.358H17.533a.679.679,0,0,0-.639.451L15.2,39.83a.679.679,0,0,0,.639.907H47.577a.679.679,0,0,0,.639-.907l-1.7-4.753a.679.679,0,0,0-.639-.451H37.817V32.335ZM49.613,4,43.637,30.977H19.91V7.384H43.5V18.789a.679.679,0,1,0,1.358,0V7.009l4.705-4.127A2.166,2.166,0,0,1,49.613,4ZM13.847,2.882l1.926,1.689a.679.679,0,1,0,.9-1.021L14.642,1.774a2.162,2.162,0,0,1,1.278-.416H47.493a2.162,2.162,0,0,1,1.278.416L43.923,6.026H19.231a.679.679,0,0,0-.679.679V25.452L13.8,4a2.165,2.165,0,0,1,.047-1.12ZM36.459,34.626H26.954V32.335h9.505Z" transform="translate(0 0)" fill="#fff" stroke="#fff" stroke-width="0.2"/>
    <path id="Path_1263" data-name="Path 1263" d="M189.661,218H176.676a.679.679,0,1,0,0,1.358h12.985a.679.679,0,1,0,0-1.358Z" transform="translate(-149.722 -199.499)" fill="#fff"/>
    <path id="Path_1264" data-name="Path 1264" d="M136.676,219.358h.339a.679.679,0,1,0,0-1.358h-.339a.679.679,0,1,0,0,1.358Z" transform="translate(-113.117 -199.499)" fill="#fff"/>
    <path id="Path_1265" data-name="Path 1265" d="M267.447,145h-5.771a.679.679,0,0,0,0,1.358h5.771a.679.679,0,1,0,0-1.358Z" transform="translate(-227.508 -132.694)" fill="#fff"/>
    <path id="Path_1266" data-name="Path 1266" d="M136.676,146.358h6.7a.679.679,0,0,0,0-1.358h-6.7a.679.679,0,1,0,0,1.358Z" transform="translate(-113.117 -132.694)" fill="#fff"/>
    <path id="Path_1267" data-name="Path 1267" d="M148.642,292H136.676a.679.679,0,0,0,0,1.358h11.967a.679.679,0,0,0,0-1.358Z" transform="translate(-113.117 -267.218)" fill="#fff"/>
  </g>
</svg>
