<svg xmlns="http://www.w3.org/2000/svg" width="43.39" height="40" viewBox="0 0 43.39 40">
  <path id="educational-programs" d="M27.06,53.471a44.9,44.9,0,0,1-8.884-.873,1.007,1.007,0,0,1-.807-.987V41.481l-5.223-1.56a1.007,1.007,0,0,1,0-1.929l14.626-4.369a1.007,1.007,0,0,1,.576,0l14.6,4.362a1.007,1.007,0,0,1,.741.971c0,.009,0,.018,0,.027V44.2l.62,1.491a1.007,1.007,0,0,1-1.626,1.113,1.007,1.007,0,0,1-1.626-1.113l.62-1.49V40.308L27.348,44.29a1.007,1.007,0,0,1-.576,0l-7.39-2.207v8.7a43.816,43.816,0,0,0,15.356,0V45.086a1.007,1.007,0,1,1,2.013,0v6.525a1.007,1.007,0,0,1-.807.987A44.9,44.9,0,0,1,27.06,53.471Zm-8.371-13.7,8.371,2.5,11.109-3.318L27.06,35.638,15.951,38.956l2.688.8Zm-4.51,8.086a1.007,1.007,0,0,1-.3-.046L.706,43.7A1.007,1.007,0,0,1,0,42.739V14.478a1.007,1.007,0,0,1,1.307-.961l17.21,5.377,16.927-5.288a1.007,1.007,0,0,1,1.307.961V32.54a1.007,1.007,0,1,1-2.013,0v-16.6l-15.356,4.8v11.3a1.007,1.007,0,0,1-2.013,0V20.644l-15.356-4.8V42l12.465,3.894a1.007,1.007,0,0,1-.3,1.968Z" transform="translate(0 -13.471)" fill="#fff"/>
</svg>
