<svg xmlns="http://www.w3.org/2000/svg" width="43.949" height="40.016" viewBox="0 0 43.949 40.016">
  <g id="noun-line-graph-presentation-648749" transform="translate(-131.314 -54.23)">
    <path id="Path_1348" data-name="Path 1348" d="M188.687,151.534h42.43a.759.759,0,0,0,0-1.519H215.765a.741.741,0,0,0-1.463,0H189.447V112.279a.759.759,0,1,0-1.519,0v38.5a.76.76,0,0,0,.76.759Z" transform="translate(-56.614 -57.289)" fill="#fff"/>
    <path id="Path_1349" data-name="Path 1349" d="M223.722,142.575a.751.751,0,0,0,.336-.079c.379-.187,9.356-4.659,15.524-10.043,4.577-4,8.389-9.953,10.153-12.952l.042.271a.759.759,0,0,0,.749.643.806.806,0,0,0,.118-.009.76.76,0,0,0,.634-.867l-.359-2.313a.76.76,0,0,0-.345-.52.726.726,0,0,0-.108-.088.744.744,0,0,0-.364-.077.732.732,0,0,0-.2.021.189.189,0,0,1-.02,0,.785.785,0,0,0-.131.026l-2.221.956a.759.759,0,1,0,.6,1.4l.218-.094c-1.758,2.961-5.46,8.7-9.766,12.459-6.016,5.253-15.108,9.781-15.2,9.826a.76.76,0,0,0,.339,1.441Z" transform="translate(-86.898 -61.629)" fill="#fff"/>
    <path id="Path_1350" data-name="Path 1350" d="M225.946,235.532a2.978,2.978,0,0,0,2.923-3.569l4.362-2.107a2.971,2.971,0,0,0,2.383,1.228c.006,0,.012,0,.018,0s.012,0,.018,0A2.976,2.976,0,0,0,238.461,229l3.946.78a2.98,2.98,0,0,0,5.892-.638,2.944,2.944,0,0,0-.415-1.492l6.213-8.471a2.967,2.967,0,0,0,.879.154c.008,0,.016.005.024.005s.013,0,.02,0a3.005,3.005,0,1,0-2.207-.971l-6.019,8.206a2.94,2.94,0,0,0-4.307,1.68l-3.946-.78a2.98,2.98,0,0,0-5.892.638,2.951,2.951,0,0,0,.033.33l-4.495,2.171a2.976,2.976,0,1,0-2.242,4.927ZM255,214.887a1.464,1.464,0,1,1-1.464,1.464A1.466,1.466,0,0,1,255,214.887Zm-9.685,12.789a1.464,1.464,0,0,1,.007,2.927h0l-.005,0a1.464,1.464,0,0,1,0-2.928Zm-9.686-1.036a1.464,1.464,0,1,1-1.464,1.464A1.466,1.466,0,0,1,235.631,226.64Zm-9.686,4.447a1.464,1.464,0,0,1,.006,2.927l-.008,0-.006,0a1.464,1.464,0,0,1,.008-2.927Z" transform="translate(-86.9 -145.329)" fill="#fff"/>
    <path id="Path_1351" data-name="Path 1351" d="M239.34,383.178a.759.759,0,1,0,.759-.759A.762.762,0,0,0,239.34,383.178Z" transform="translate(-101.056 -291.459)" fill="#fff"/>
    <path id="Path_1352" data-name="Path 1352" d="M312.319,350.428a.759.759,0,1,1-.759-.759.759.759,0,0,1,.759.759" transform="translate(-162.828 -263.15)" fill="#fff"/>
    <path id="Path_1353" data-name="Path 1353" d="M311.558,366.46a.759.759,0,1,0,.759.759A.757.757,0,0,0,311.558,366.46Z" transform="translate(-162.826 -277.665)" fill="#fff"/>
    <path id="Path_1354" data-name="Path 1354" d="M311.558,383.27a.759.759,0,1,0,.759.759A.757.757,0,0,0,311.558,383.27Z" transform="translate(-162.826 -292.196)" fill="#fff"/>
    <path id="Path_1355" data-name="Path 1355" d="M383.779,374.838a.759.759,0,1,1-.759-.759.759.759,0,0,1,.759.759" transform="translate(-224.599 -284.25)" fill="#fff"/>
    <path id="Path_1356" data-name="Path 1356" d="M383.779,358.041a.759.759,0,1,1-.759-.759.759.759,0,0,1,.759.759" transform="translate(-224.599 -269.731)" fill="#fff"/>
    <path id="Path_1357" data-name="Path 1357" d="M454.418,313.38a.759.759,0,1,0,.759.759A.757.757,0,0,0,454.418,313.38Z" transform="translate(-286.317 -231.781)" fill="#fff"/>
    <path id="Path_1358" data-name="Path 1358" d="M454.418,262.98a.759.759,0,1,0,.759.759A.757.757,0,0,0,454.418,262.98Z" transform="translate(-286.317 -188.214)" fill="#fff"/>
    <path id="Path_1359" data-name="Path 1359" d="M454.418,346.98a.759.759,0,1,0,.759.759A.757.757,0,0,0,454.418,346.98Z" transform="translate(-286.317 -260.826)" fill="#fff"/>
    <path id="Path_1360" data-name="Path 1360" d="M454.418,296.57a.759.759,0,1,0,.759.759A.757.757,0,0,0,454.418,296.57Z" transform="translate(-286.317 -217.25)" fill="#fff"/>
    <path id="Path_1361" data-name="Path 1361" d="M454.418,279.78a.759.759,0,1,0,.759.759A.757.757,0,0,0,454.418,279.78Z" transform="translate(-286.317 -202.737)" fill="#fff"/>
    <path id="Path_1362" data-name="Path 1362" d="M454.418,330.18a.759.759,0,1,0,.759.76A.757.757,0,0,0,454.418,330.18Z" transform="translate(-286.317 -246.303)" fill="#fff"/>
    <path id="Path_1363" data-name="Path 1363" d="M454.418,380.57a.759.759,0,1,0,.759.759A.757.757,0,0,0,454.418,380.57Z" transform="translate(-286.317 -289.862)" fill="#fff"/>
    <path id="Path_1364" data-name="Path 1364" d="M454.418,363.78a.759.759,0,1,0,.759.759A.757.757,0,0,0,454.418,363.78Z" transform="translate(-286.317 -275.348)" fill="#fff"/>
  </g>
</svg>
