<svg xmlns="http://www.w3.org/2000/svg" width="46.498" height="33.702" viewBox="0 0 46.498 33.702">
  <g id="noun-queue-2534026" transform="translate(-108.497 -153.25)">
    <path id="Path_1249" data-name="Path 1249" d="M339.608,183.8a1.8,1.8,0,1,1-1.8-1.8,1.8,1.8,0,0,1,1.8,1.8" transform="translate(-211.267 -24.527)" fill="#fff"/>
    <path id="Path_1250" data-name="Path 1250" d="M297.608,183.8a1.8,1.8,0,1,1-1.8-1.8,1.8,1.8,0,0,1,1.8,1.8" transform="translate(-174.679 -24.527)" fill="#fff"/>
    <path id="Path_1252" data-name="Path 1252" d="M255.608,267.8a1.8,1.8,0,1,1-1.8-1.8,1.8,1.8,0,0,1,1.8,1.8" transform="translate(-138.091 -97.702)" fill="#fff"/>
    <path id="Path_1254" data-name="Path 1254" d="M339.608,267.8a1.8,1.8,0,1,1-1.8-1.8,1.8,1.8,0,0,1,1.8,1.8" transform="translate(-211.267 -97.702)" fill="#fff"/>
    <path id="Path_1255" data-name="Path 1255" d="M297.608,267.8a1.8,1.8,0,1,1-1.8-1.8,1.8,1.8,0,0,1,1.8,1.8" transform="translate(-174.679 -97.702)" fill="#fff"/>
    <path id="Path_1256" data-name="Path 1256" d="M255.608,351.8a1.8,1.8,0,1,1-1.8-1.8,1.8,1.8,0,0,1,1.8,1.8" transform="translate(-138.091 -170.879)" fill="#fff"/>
    <path id="Path_1257" data-name="Path 1257" d="M213.608,351.8a1.8,1.8,0,1,1-1.8-1.8,1.8,1.8,0,0,1,1.8,1.8" transform="translate(-101.503 -170.879)" fill="#fff"/>
    <path id="Path_1258" data-name="Path 1258" d="M297.608,351.8a1.8,1.8,0,1,1-1.8-1.8,1.8,1.8,0,0,1,1.8,1.8" transform="translate(-174.679 -170.879)" fill="#fff"/>
    <path id="Path_1259" data-name="Path 1259" d="M339.608,351.8a1.8,1.8,0,1,1-1.8-1.8,1.8,1.8,0,0,1,1.8,1.8" transform="translate(-211.267 -170.879)" fill="#fff"/>
    <path id="Path_1260" data-name="Path 1260" d="M379.789,154A1.789,1.789,0,0,0,378,155.789v28.623a1.789,1.789,0,1,0,3.578,0V155.789A1.79,1.79,0,0,0,379.789,154Z" transform="translate(-248.527 0)" fill="#fff" stroke="#ea1b64" stroke-width="1.5"/>
    <path id="Path_1261" data-name="Path 1261" d="M455.331,170.79a1.864,1.864,0,0,0,.055-.179c.015-.052.035-.1.045-.155a1.8,1.8,0,0,0,0-.7c-.011-.054-.03-.1-.045-.155a1.047,1.047,0,0,0-.148-.357c-.024-.044-.044-.089-.072-.132h0a1.8,1.8,0,0,0-.225-.275l-5.367-5.367a1.789,1.789,0,0,0-2.529,2.53l2.315,2.318H437.578V155.794a1.789,1.789,0,0,0-3.578,0v28.623a1.789,1.789,0,1,0,3.578,0V171.894H449.36l-2.313,2.313a1.789,1.789,0,1,0,2.53,2.53l5.367-5.367a1.8,1.8,0,0,0,.225-.275c.028-.042.047-.089.072-.132a1.778,1.778,0,0,0,.09-.174Z" transform="translate(-301.222 -0.004)" fill="#fff" stroke="#ea1b64" stroke-width="1.5"/>
  </g>
</svg>
