<svg xmlns="http://www.w3.org/2000/svg" width="20.313" height="20.308" viewBox="0 0 20.313 20.308">
  <g id="instagram" transform="translate(0 0)">
    <path id="instagram-brands_1_" data-name="instagram-brands (1)" d="M10.084,36.772a5.207,5.207,0,1,0,5.207,5.207A5.2,5.2,0,0,0,10.084,36.772Zm0,8.592a3.385,3.385,0,1,1,3.385-3.385A3.391,3.391,0,0,1,10.084,45.364Zm6.634-8.8A1.214,1.214,0,1,1,15.5,35.345,1.212,1.212,0,0,1,16.718,36.559Zm3.449,1.233a6.01,6.01,0,0,0-1.64-4.255,6.05,6.05,0,0,0-4.255-1.64c-1.677-.1-6.7-.1-8.379,0a6.041,6.041,0,0,0-4.255,1.636A6.03,6.03,0,0,0,0,37.787c-.1,1.677-.1,6.7,0,8.379a6.01,6.01,0,0,0,1.64,4.255,6.057,6.057,0,0,0,4.255,1.64c1.677.1,6.7.1,8.379,0a6.01,6.01,0,0,0,4.255-1.64,6.05,6.05,0,0,0,1.64-4.255C20.262,44.49,20.262,39.469,20.167,37.792ZM18,47.965a3.427,3.427,0,0,1-1.93,1.93c-1.337.53-4.509.408-5.986.408S5.43,50.422,4.1,49.9a3.427,3.427,0,0,1-1.93-1.93c-.53-1.337-.408-4.509-.408-5.986s-.118-4.654.408-5.986a3.427,3.427,0,0,1,1.93-1.93c1.337-.53,4.509-.408,5.986-.408s4.654-.118,5.986.408A3.427,3.427,0,0,1,18,35.993c.53,1.337.408,4.509.408,5.986S18.531,46.633,18,47.965Z" transform="translate(0.075 -31.825)" fill="#fff"/>
  </g>
</svg>
