<svg xmlns="http://www.w3.org/2000/svg" width="42.544" height="42.471" viewBox="0 0 42.544 42.471">
  <g id="noun-support-" transform="translate(-89.527 -19.751)">
    <path id="Path_1365" data-name="Path 1365" d="M298.275,34.572H296.99a.323.323,0,0,1-.315-.25l-.345-1.5a5.624,5.624,0,0,1-1.694-.7l-1.3.815a.322.322,0,0,1-.4-.045l-.909-.909a.323.323,0,0,1-.045-.4l.815-1.3a5.616,5.616,0,0,1-.7-1.694l-1.5-.345a.323.323,0,0,1-.25-.315V26.644a.323.323,0,0,1,.25-.315l1.5-.345a5.624,5.624,0,0,1,.7-1.694l-.815-1.3a.323.323,0,0,1,.045-.4l.909-.909a.322.322,0,0,1,.4-.045l1.3.815a5.624,5.624,0,0,1,1.694-.7l.345-1.5a.323.323,0,0,1,.315-.25h1.286a.323.323,0,0,1,.315.25l.345,1.5a5.624,5.624,0,0,1,1.694.7l1.3-.815a.322.322,0,0,1,.4.045l.909.909a.323.323,0,0,1,.045.4l-.815,1.3a5.624,5.624,0,0,1,.7,1.694l1.5.345a.323.323,0,0,1,.25.315v1.285a.323.323,0,0,1-.25.315l-1.5.345a5.624,5.624,0,0,1-.7,1.694l.815,1.3a.323.323,0,0,1-.045.4l-.909.909a.322.322,0,0,1-.4.045l-1.3-.815a5.624,5.624,0,0,1-1.694.7l-.345,1.5A.322.322,0,0,1,298.275,34.572Zm-1.029-.646h.771l.333-1.448a.323.323,0,0,1,.253-.244,5,5,0,0,0,1.841-.761.323.323,0,0,1,.352-.006l1.258.787.545-.546-.787-1.258a.323.323,0,0,1,.006-.351,4.987,4.987,0,0,0,.761-1.841.323.323,0,0,1,.244-.253l1.448-.333V26.9l-1.448-.333a.323.323,0,0,1-.244-.253,4.994,4.994,0,0,0-.761-1.841.322.322,0,0,1-.006-.351l.787-1.258-.545-.546-1.258.787a.321.321,0,0,1-.352-.006,4.994,4.994,0,0,0-1.841-.761.323.323,0,0,1-.253-.244l-.334-1.448h-.771l-.333,1.448a.323.323,0,0,1-.253.244,5,5,0,0,0-1.841.761.321.321,0,0,1-.352.006l-1.258-.787-.545.546.787,1.258a.323.323,0,0,1-.006.351,4.993,4.993,0,0,0-.761,1.841.323.323,0,0,1-.244.253l-1.448.333v.771l1.448.333a.323.323,0,0,1,.244.253,4.988,4.988,0,0,0,.761,1.841.322.322,0,0,1,.006.351l-.787,1.258.545.546,1.258-.787a.323.323,0,0,1,.352.006,4.994,4.994,0,0,0,1.841.761.323.323,0,0,1,.253.244Zm7.348-6Z" transform="translate(-184.384)" fill="#fff" stroke="#fff" stroke-width="0.5"/>
    <path id="Path_1366" data-name="Path 1366" d="M344.965,77.754a3.13,3.13,0,1,1,3.13-3.13A3.13,3.13,0,0,1,344.965,77.754Zm0-5.614a2.484,2.484,0,1,0,2.484,2.484A2.484,2.484,0,0,0,344.965,72.14Z" transform="translate(-231.717 -47.338)" fill="#fff" stroke="#fff" stroke-width="0.5"/>
    <path id="Path_1367" data-name="Path 1367" d="M482.952,110.982h-.932a.323.323,0,0,1-.315-.25l-.238-1.033a4.166,4.166,0,0,1-1.154-.477l-.9.561a.323.323,0,0,1-.4-.045l-.659-.659a.323.323,0,0,1-.045-.4l.561-.9a4.159,4.159,0,0,1-.477-1.153l-1.032-.238a.323.323,0,0,1-.25-.315v-.932a.323.323,0,0,1,.25-.315l1.032-.237a4.162,4.162,0,0,1,.477-1.154l-.561-.9a.323.323,0,0,1,.045-.4l.659-.659a.322.322,0,0,1,.4-.045l.9.561a4.158,4.158,0,0,1,1.154-.477l.238-1.032a.323.323,0,0,1,.315-.25h.932a.323.323,0,0,1,.315.25l.238,1.032a4.166,4.166,0,0,1,1.154.477l.9-.561a.322.322,0,0,1,.4.045l.659.659a.323.323,0,0,1,.045.4l-.561.9a4.158,4.158,0,0,1,.477,1.154l1.032.237a.323.323,0,0,1,.25.315v.932a.323.323,0,0,1-.25.315l-1.032.238a4.167,4.167,0,0,1-.477,1.153l.561.9a.323.323,0,0,1-.045.4l-.659.659a.322.322,0,0,1-.4.045l-.9-.561a4.158,4.158,0,0,1-1.154.477l-.237,1.033a.323.323,0,0,1-.316.25Zm-.675-.646h.418l.226-.981a.323.323,0,0,1,.253-.244,3.527,3.527,0,0,0,1.3-.538.322.322,0,0,1,.351-.006l.852.533.3-.3-.533-.852a.323.323,0,0,1,.006-.351,3.53,3.53,0,0,0,.538-1.3.324.324,0,0,1,.244-.252l.981-.226V105.4l-.981-.225a.323.323,0,0,1-.244-.253,3.538,3.538,0,0,0-.538-1.3.323.323,0,0,1-.006-.351l.533-.852-.3-.3-.852.533a.322.322,0,0,1-.351-.006,3.523,3.523,0,0,0-1.3-.538.323.323,0,0,1-.253-.244l-.226-.981h-.418l-.226.981a.323.323,0,0,1-.253.244,3.528,3.528,0,0,0-1.3.538.322.322,0,0,1-.351.006l-.852-.533-.3.3.533.852a.323.323,0,0,1-.006.351,3.53,3.53,0,0,0-.538,1.3.324.324,0,0,1-.244.253l-.981.225v.418l.981.226a.323.323,0,0,1,.244.253,3.532,3.532,0,0,0,.538,1.3.322.322,0,0,1,.006.351L479,108.8l.3.3.852-.533a.322.322,0,0,1,.351.006,3.523,3.523,0,0,0,1.3.538.323.323,0,0,1,.253.244Zm5.257-4.259Z" transform="translate(-356.081 -73.764)" fill="#fff" stroke="#fff" stroke-width="0.5"/>
    <path id="Path_1368" data-name="Path 1368" d="M521.122,146.239a1.978,1.978,0,1,1,1.978-1.978,1.978,1.978,0,0,1-1.978,1.978Zm0-3.311a1.333,1.333,0,1,0,1.333,1.333A1.333,1.333,0,0,0,521.122,142.928Z" transform="translate(-394.717 -112.413)" fill="#fff" stroke="#fff" stroke-width="0.5"/>
    <path id="Path_1369" data-name="Path 1369" d="M364.748,224.388h-1.142a.323.323,0,0,1-.315-.25l-.3-1.309a5.02,5.02,0,0,1-1.475-.61l-1.138.712a.323.323,0,0,1-.4-.045l-.808-.808a.323.323,0,0,1-.045-.4l.712-1.137a5.026,5.026,0,0,1-.61-1.475l-1.309-.3a.323.323,0,0,1-.25-.315v-1.142a.323.323,0,0,1,.25-.315l1.309-.3a5.033,5.033,0,0,1,.61-1.475l-.712-1.137a.323.323,0,0,1,.046-.4l.808-.808a.322.322,0,0,1,.4-.045l1.138.712a5.026,5.026,0,0,1,1.475-.61l.3-1.309a.323.323,0,0,1,.315-.25h1.142a.323.323,0,0,1,.315.25l.3,1.309a5.019,5.019,0,0,1,1.475.61l1.138-.712a.322.322,0,0,1,.4.045l.807.808a.323.323,0,0,1,.045.4l-.712,1.138a5.026,5.026,0,0,1,.61,1.475l1.309.3a.323.323,0,0,1,.25.315v1.142a.323.323,0,0,1-.25.315l-1.309.3a5.022,5.022,0,0,1-.61,1.475l.712,1.137a.323.323,0,0,1-.045.4l-.807.808a.323.323,0,0,1-.4.045l-1.138-.712a5.026,5.026,0,0,1-1.475.61l-.3,1.309A.323.323,0,0,1,364.748,224.388Zm-.885-.646h.628l.29-1.258a.323.323,0,0,1,.253-.244,4.4,4.4,0,0,0,1.623-.671.322.322,0,0,1,.352-.006l1.093.684.444-.444-.684-1.093a.323.323,0,0,1,.006-.352,4.394,4.394,0,0,0,.671-1.623.323.323,0,0,1,.244-.253l1.258-.29v-.628l-1.258-.29a.323.323,0,0,1-.244-.253,4.393,4.393,0,0,0-.671-1.623.322.322,0,0,1-.006-.352l.684-1.093-.444-.444-1.093.684a.321.321,0,0,1-.352-.006,4.4,4.4,0,0,0-1.623-.671.322.322,0,0,1-.253-.244l-.29-1.258h-.628l-.29,1.258a.323.323,0,0,1-.253.244,4.4,4.4,0,0,0-1.623.671.321.321,0,0,1-.352.006l-1.094-.684-.444.444.684,1.093a.323.323,0,0,1-.006.352,4.395,4.395,0,0,0-.671,1.623.323.323,0,0,1-.244.253l-1.258.29v.628l1.258.29a.323.323,0,0,1,.244.253,4.394,4.394,0,0,0,.671,1.623.322.322,0,0,1,.006.352l-.684,1.093.444.444,1.094-.684a.322.322,0,0,1,.352.006,4.4,4.4,0,0,0,1.623.671.322.322,0,0,1,.253.244Zm6.5-5.293Z" transform="translate(-246.272 -175.925)" fill="#fff" stroke="#fff" stroke-width="0.5"/>
    <path id="Path_1370" data-name="Path 1370" d="M411.551,267.591a2.352,2.352,0,1,1,2.352-2.352A2.352,2.352,0,0,1,411.551,267.591Zm0-4.058a1.706,1.706,0,1,0,1.706,1.706,1.706,1.706,0,0,0-1.706-1.706Z" transform="translate(-293.645 -223.286)" fill="#fff" stroke="#fff" stroke-width="0.5"/>
    <path id="Path_1371" data-name="Path 1371" d="M95.3,330.035H90.1a.323.323,0,0,1-.323-.323V313.493a.323.323,0,0,1,.323-.323h5.2a.323.323,0,0,1,.323.323v16.219A.323.323,0,0,1,95.3,330.035Zm-4.879-.646h4.556V313.816H90.423Z" transform="translate(0 -269.511)" fill="#fff" stroke="#fff" stroke-width="0.5"/>
    <path id="Path_1372" data-name="Path 1372" d="M171.413,338.176a12.241,12.241,0,0,1-1.931-.154l-14.992-2.7a.323.323,0,0,1-.265-.318V321.6a.322.322,0,0,1,.292-.321l8.365-.792a8.472,8.472,0,0,1,5.57,1.552l6.611,4.626a2.889,2.889,0,0,1,1.167,2.65c4.761-.448,8.529-3.518,10.876-6.054a2.18,2.18,0,0,1,1.8-.715,2.262,2.262,0,0,1,1.7,1.065,2.72,2.72,0,0,1-.061,2.979,27.543,27.543,0,0,1-15.951,11.173,12.429,12.429,0,0,1-3.18.418Zm-16.542-3.437,14.719,2.647a11.644,11.644,0,0,0,4.838-.252,26.917,26.917,0,0,0,15.59-10.922,2.061,2.061,0,0,0,.044-2.256,1.624,1.624,0,0,0-1.214-.77,1.526,1.526,0,0,0-1.266.51c-2.456,2.655-6.429,5.876-11.486,6.276a2.816,2.816,0,0,1-.647,1.081,2.429,2.429,0,0,1-1.761.769,2.309,2.309,0,0,1-.76-.126c-1.187-.413-5.21-1.91-7.135-3.816a.323.323,0,0,1,.454-.459c1.453,1.439,4.514,2.837,6.893,3.665a1.662,1.662,0,0,0,.548.09,1.788,1.788,0,0,0,1.295-.57,2.163,2.163,0,0,0,.546-1.006v-.018a2.271,2.271,0,0,0-.839-2.391l-6.611-4.625a7.844,7.844,0,0,0-5.145-1.438l-8.068.764Z" transform="translate(-59.247 -276.21)" fill="#fff" stroke="#fff" stroke-width="0.5"/>
    <path id="Path_1373" data-name="Path 1373" d="M368.936,468.471a.323.323,0,0,1-.014-.645,10.177,10.177,0,0,0,2.161-.331,25.848,25.848,0,0,0,7.044-3,.323.323,0,1,1,.34.548,26.492,26.492,0,0,1-7.22,3.074,10.807,10.807,0,0,1-2.3.351h-.014Z" transform="translate(-256.335 -408.581)" fill="#fff" stroke="#fff" stroke-width="0.5"/>
    <path id="Path_1374" data-name="Path 1374" d="M108.723,469a1.517,1.517,0,1,1,1.517-1.517A1.517,1.517,0,0,1,108.723,469Zm0-2.389a.872.872,0,1,0,.872.872.872.872,0,0,0-.872-.872Z" transform="translate(-16.022 -409.978)" fill="#fff" stroke="#fff" stroke-width="0.5"/>
  </g>
</svg>
