<svg xmlns="http://www.w3.org/2000/svg" width="50.028" height="50.028" viewBox="0 0 50.028 50.028">
  <g id="_OUTLINE" data-name=" OUTLINE" transform="translate(-16 -16)">
    <path id="Path_3" data-name="Path 3" d="M62.247,36.927l-.8-3L64.107,31l-2.884-4.991-3.861.846-2.195-2.195.846-3.861-4.991-2.884L48.1,20.584l-3-.8L43.9,16H38.133l-1.206,3.781-3,.8L31,17.921,26.014,20.8l.846,3.861L24.665,26.86,20.8,26.014,17.921,31l2.663,2.925-.8,3L16,38.133V43.9L19.781,45.1l.8,3-2.663,2.924L20.8,56.014l3.861-.846.751.751L26.6,54.74l-1.4-1.4-3.561.78-1.664-2.879,2.455-2.7L21.156,43.79l-3.488-1.113V39.351l3.488-1.113,1.274-4.758-2.456-2.7L21.639,27.9l3.561.78L28.684,25.2l-.78-3.561,2.879-1.664,2.7,2.455,4.758-1.274,1.113-3.488h3.326l1.113,3.488,4.758,1.274,2.7-2.456,2.879,1.664-.78,3.561,3.485,3.485,3.561-.78,1.664,2.879-2.455,2.7,1.274,4.758,3.488,1.113v3.326L60.872,43.79,59.6,48.548l2.456,2.7L60.39,54.124l-3.561-.78L55.574,54.6l1.179,1.179.61-.61,3.861.846,2.884-4.991L61.445,48.1l.8-3L66.028,43.9V38.133Z" transform="translate(0)" fill="#ea1b64"/>
    <path id="Path_4" data-name="Path 4" d="M54.355,116.851a17.51,17.51,0,1,0-26.682,0v12.006H16v1.668H66.028v-1.668H54.355ZM34.344,128.857H32.676v-2.5h1.668Zm3.335,0H36.011v-4.169h-5v4.169H29.341V106.344h8.338Zm0-24.18h-2.5v-2.013l-1.912-1.912a2.5,2.5,0,1,0-1.179,1.179l1.424,1.424v1.322H27.673v9.378a15.842,15.842,0,1,1,26.683,0V101.341h-6.67v-1.322l.59-.59A2.5,2.5,0,1,0,47.1,98.25l-1.078,1.078v2.013H44.349V96.195a2.5,2.5,0,1,0-1.668,0v5.146H41.014V98.494l-2.542-2.542a2.5,2.5,0,1,0-.874,1.485l1.748,1.748v2.156H37.679Zm-5.837-5a.834.834,0,1,1-.834-.834A.834.834,0,0,1,31.842,99.673Zm16.676-2.5a.834.834,0,1,1,.834.834A.834.834,0,0,1,48.518,97.172Zm-5-2.5a.834.834,0,1,1,.834-.834A.834.834,0,0,1,43.516,94.67Zm-6.67.834a.834.834,0,1,1-.834-.834A.834.834,0,0,1,36.845,95.5Zm10.839,33.352H44.349v-2.5h3.335Zm5,0H49.352v-4.169h-6.67v4.169H39.347V103.009H52.687Z" transform="translate(0 -64.496)" fill="#ea1b64"/>
    <path id="Path_5" data-name="Path 5" d="M256,248h1.668v1.668H256Z" transform="translate(-214.986 -207.82)" fill="#ea1b64"/>
    <path id="Path_6" data-name="Path 6" d="M296,248h1.668v1.668H296Z" transform="translate(-250.817 -207.82)" fill="#ea1b64"/>
    <path id="Path_7" data-name="Path 7" d="M336,248h1.668v1.668H336Z" transform="translate(-286.648 -207.82)" fill="#ea1b64"/>
    <path id="Path_8" data-name="Path 8" d="M256,280h1.668v1.668H256Z" transform="translate(-214.986 -236.484)" fill="#ea1b64"/>
    <path id="Path_9" data-name="Path 9" d="M296,280h1.668v1.668H296Z" transform="translate(-250.817 -236.484)" fill="#ea1b64"/>
    <path id="Path_10" data-name="Path 10" d="M336,280h1.668v1.668H336Z" transform="translate(-286.648 -236.484)" fill="#ea1b64"/>
    <path id="Path_11" data-name="Path 11" d="M256,312h1.668v1.668H256Z" transform="translate(-214.986 -265.149)" fill="#ea1b64"/>
    <path id="Path_12" data-name="Path 12" d="M296,312h1.668v1.668H296Z" transform="translate(-250.817 -265.149)" fill="#ea1b64"/>
    <path id="Path_13" data-name="Path 13" d="M336,312h1.668v1.668H336Z" transform="translate(-286.648 -265.149)" fill="#ea1b64"/>
    <path id="Path_14" data-name="Path 14" d="M256,344h1.668v1.668H256Z" transform="translate(-214.986 -293.814)" fill="#ea1b64"/>
    <path id="Path_15" data-name="Path 15" d="M296,344h1.668v1.668H296Z" transform="translate(-250.817 -293.814)" fill="#ea1b64"/>
    <path id="Path_16" data-name="Path 16" d="M336,344h1.668v1.668H336Z" transform="translate(-286.648 -293.814)" fill="#ea1b64"/>
    <path id="Path_17" data-name="Path 17" d="M256,376h1.668v1.668H256Z" transform="translate(-214.986 -322.479)" fill="#ea1b64"/>
    <path id="Path_18" data-name="Path 18" d="M296,376h1.668v1.668H296Z" transform="translate(-250.817 -322.479)" fill="#ea1b64"/>
    <path id="Path_19" data-name="Path 19" d="M336,376h1.668v1.668H336Z" transform="translate(-286.648 -322.479)" fill="#ea1b64"/>
    <path id="Path_20" data-name="Path 20" d="M256,408h10.006v1.668H256Z" transform="translate(-214.986 -351.143)" fill="#ea1b64"/>
    <path id="Path_21" data-name="Path 21" d="M160,280h1.668v1.668H160Z" transform="translate(-128.991 -236.484)" fill="#ea1b64"/>
    <path id="Path_22" data-name="Path 22" d="M160,320h1.668v1.668H160Z" transform="translate(-128.991 -272.315)" fill="#ea1b64"/>
    <path id="Path_23" data-name="Path 23" d="M192,320h1.668v1.668H192Z" transform="translate(-157.656 -272.315)" fill="#ea1b64"/>
    <path id="Path_24" data-name="Path 24" d="M160,360h1.668v1.668H160Z" transform="translate(-128.991 -308.146)" fill="#ea1b64"/>
    <path id="Path_25" data-name="Path 25" d="M192,360h1.668v1.668H192Z" transform="translate(-157.656 -308.146)" fill="#ea1b64"/>
    <path id="Path_26" data-name="Path 26" d="M160,400h1.668v1.668H160Z" transform="translate(-128.991 -343.977)" fill="#ea1b64"/>
    <path id="Path_27" data-name="Path 27" d="M192,400h1.668v1.668H192Z" transform="translate(-157.656 -343.977)" fill="#ea1b64"/>
    <path id="Path_28" data-name="Path 28" d="M192,280h1.668v1.668H192Z" transform="translate(-157.656 -236.484)" fill="#ea1b64"/>
  </g>
</svg>
