<svg xmlns="http://www.w3.org/2000/svg" width="11.082" height="7.885" viewBox="0 0 11.082 7.885">
  <path id="Path_65" data-name="Path 65" d="M34.909,29.751a.626.626,0,1,0-.894.877L37.2,33.864h0l.023.02.023.022.026.019.024.018.028.017.026.015.031.014L37.4,34l.033.011.024.009.037.009h.282l.037-.009.023-.008L37.874,34l.024-.011.032-.014.024-.014.029-.017.023-.017.027-.02.022-.019.024-.022h0l6.655-6.655a.626.626,0,0,0-.885-.885l-6.208,6.208Z" transform="translate(-33.836 -26.145)" fill="#ea1b64"/>
</svg>
