<svg xmlns="http://www.w3.org/2000/svg" width="512" height="512" viewBox="0 0 512 512">
  <g id="SPOTIFY" transform="translate(-2493 -2504)">
    <path id="Path_12" data-name="Path 12" d="M407,512H105A105.119,105.119,0,0,1,0,407V105A105.119,105.119,0,0,1,105,0H407A105.119,105.119,0,0,1,512,105V407A105.119,105.119,0,0,1,407,512Z" transform="translate(2493 2504)" fill="#00d95a"/>
    <g id="spotify-2" data-name="spotify" transform="translate(2487.767 2495.998)">
      <path id="Path_11" data-name="Path 11" d="M302.524,250.39a15.853,15.853,0,0,1-21.808,5.28c-59.752-36.52-134.96-44.768-223.528-24.536a15.854,15.854,0,1,1-7.056-30.912c96.92-22.16,180.064-12.624,247.128,28.36a15.868,15.868,0,0,1,5.264,21.808ZM333.652,181.1a19.84,19.84,0,0,1-27.288,6.536c-68.376-42.032-172.64-54.2-253.536-29.648A19.836,19.836,0,1,1,41.3,120.03c92.408-28.04,207.3-14.456,285.824,33.8a19.835,19.835,0,0,1,6.528,27.272Zm2.688-72.136c-82.016-48.712-217.3-53.192-295.6-29.424A23.8,23.8,0,1,1,26.924,34c89.88-27.28,239.288-22.008,333.7,34.04a23.8,23.8,0,0,1-24.288,40.928Z" transform="translate(70.204 126.002)" fill="#fff"/>
    </g>
  </g>
</svg>
