<svg xmlns="http://www.w3.org/2000/svg" xmlns:xlink="http://www.w3.org/1999/xlink" width="1341.242" height="1315.244" viewBox="0 0 1341.242 1315.244">
  <defs>
    <linearGradient id="linear-gradient" x1="0.264" y1="0.321" x2="0.964" y2="0.926" gradientUnits="objectBoundingBox">
      <stop offset="0" stop-color="#ffe1eb"/>
      <stop offset="1" stop-color="#fff"/>
    </linearGradient>
  </defs>
  <g id="Group_211" data-name="Group 211" transform="translate(571.08 63.368)" opacity="0.5">
    <path id="Path_1197" data-name="Path 1197" d="M-489.835,729.167a28.162,28.162,0,0,1,5.074-14.916l494.3-707A28.406,28.406,0,0,1,49.023.229l709,493.158a28.221,28.221,0,0,1,7.04,39.378l-494.3,707a28.4,28.4,0,0,1-39.48,7.014L-477.716,753.623A28.148,28.148,0,0,1-489.835,729.167Zm1257.7-211.422a25.888,25.888,0,0,0-11.146-22.5L47.723,2.087A26.121,26.121,0,0,0,11.4,8.542l-494.306,707a25.879,25.879,0,0,0-4.664,13.72,25.914,25.914,0,0,0,11.144,22.507l709,493.154a26.123,26.123,0,0,0,36.321-6.454l494.3-707A25.861,25.861,0,0,0,767.865,517.745Z" fill="url(#linear-gradient)"/>
    <path id="Path_1198" data-name="Path 1198" d="M-493.614,701.811a27.411,27.411,0,0,1,5.151-14.839L2.12,3.965A27.714,27.714,0,0,1,40.727-2.393L725.663,487.05a27.537,27.537,0,0,1,6.383,38.508L241.462,1208.564a27.748,27.748,0,0,1-38.607,6.359L-482.082,725.479A27.509,27.509,0,0,1-493.614,701.811ZM734.93,510.614a25.247,25.247,0,0,0-10.586-21.725L39.4-.552A25.44,25.44,0,0,0,3.961,5.282L-486.62,688.289a25.2,25.2,0,0,0-4.728,13.624,25.239,25.239,0,0,0,10.589,21.725l684.937,489.446a25.476,25.476,0,0,0,35.441-5.834L730.2,524.239A25.155,25.155,0,0,0,734.93,510.614Z" fill="url(#linear-gradient)"/>
    <path id="Path_1199" data-name="Path 1199" d="M-497.4,674.463a26.714,26.714,0,0,1,5.237-14.766L-5.3.684a27.063,27.063,0,0,1,37.736-5.7L693.309,480.71a26.869,26.869,0,0,1,5.721,37.641L212.17,1177.363a27.04,27.04,0,0,1-37.737,5.7L-486.445,697.335A26.885,26.885,0,0,1-497.4,674.463ZM702,503.48a24.64,24.64,0,0,0-10.034-20.949L31.088-3.192A24.791,24.791,0,0,0-3.478,2.026L-490.336,661.037a24.484,24.484,0,0,0-4.8,13.529A24.611,24.611,0,0,0-485.1,695.511l660.872,485.728a24.772,24.772,0,0,0,34.572-5.218L697.2,517.006A24.458,24.458,0,0,0,702,503.48Z" fill="url(#linear-gradient)"/>
    <path id="Path_1200" data-name="Path 1200" d="M-501.194,647.115a26.009,26.009,0,0,1,5.328-14.7L-12.726-2.6A26.16,26.16,0,0,1,4.659-12.733a26.211,26.211,0,0,1,19.481,5.1L660.956,474.376a26.189,26.189,0,0,1,5.057,36.77L182.871,1146.162a26.388,26.388,0,0,1-36.865,5.035L-490.81,669.185A26.231,26.231,0,0,1-501.194,647.115ZM669.077,496.347a24,24,0,0,0-9.491-20.17L22.77-5.833a23.95,23.95,0,0,0-17.8-4.658A23.886,23.886,0,0,0-10.917-1.23L-494.06,633.789a23.807,23.807,0,0,0-4.87,13.429,23.981,23.981,0,0,0,9.489,20.168L147.38,1149.4a24.118,24.118,0,0,0,33.683-4.6L664.208,509.776A23.818,23.818,0,0,0,669.077,496.347Z" fill="url(#linear-gradient)"/>
    <path id="Path_1201" data-name="Path 1201" d="M-504.992,619.762a25.384,25.384,0,0,1,5.423-14.626L-20.145-5.881A25.483,25.483,0,0,1-3.061-15.5a25.534,25.534,0,0,1,18.91,5.248L628.6,468.039a25.532,25.532,0,0,1,4.4,35.9L153.575,1114.959a25.692,25.692,0,0,1-35.992,4.377l-612.76-478.294A25.63,25.63,0,0,1-504.992,619.762ZM636.151,489.216a23.351,23.351,0,0,0-8.948-19.4L14.449-8.474A23.266,23.266,0,0,0-2.783-13.256a23.22,23.22,0,0,0-15.576,8.77L-497.782,606.537a23.09,23.09,0,0,0-4.944,13.326,23.362,23.362,0,0,0,8.948,19.4l612.755,478.295a23.421,23.421,0,0,0,32.812-3.99l479.42-611.021A23.077,23.077,0,0,0,636.151,489.216Z" fill="url(#linear-gradient)"/>
    <path id="Path_1202" data-name="Path 1202" d="M-508.8,592.414a24.652,24.652,0,0,1,5.526-14.55L-27.566-9.164a25.045,25.045,0,0,1,35.12-3.71l588.7,474.581a24.993,24.993,0,0,1,9.252,20.474,24.691,24.691,0,0,1-5.525,14.554l-475.7,587.022a25.013,25.013,0,0,1-35.119,3.711l-588.7-474.578A24.99,24.99,0,0,1-508.8,592.414ZM603.238,482.083a22.729,22.729,0,0,0-8.413-18.617L6.128-11.114A22.767,22.767,0,0,0-25.8-7.742L-501.506,579.289a22.422,22.422,0,0,0-5.024,13.223,22.725,22.725,0,0,0,8.415,18.618l588.7,474.577a22.736,22.736,0,0,0,31.928-3.37L598.215,495.31A22.4,22.4,0,0,0,603.238,482.083Z" fill="url(#linear-gradient)"/>
    <path id="Path_1203" data-name="Path 1203" d="M-512.6,565.058a23.98,23.98,0,0,1,5.632-14.476L-34.986-12.446a24.157,24.157,0,0,1,16.491-8.6A24.2,24.2,0,0,1-.737-15.492L563.9,455.369a24.194,24.194,0,0,1,3.06,34.156L94.977,1052.559a24.387,24.387,0,0,1-34.248,3.046L-503.907,584.744A24.061,24.061,0,0,1-512.6,565.058Zm1082.93-90.11a21.812,21.812,0,0,0-7.883-17.841L-2.191-13.758a21.957,21.957,0,0,0-16.1-5.032,21.909,21.909,0,0,0-14.951,7.8L-505.227,552.036a21.724,21.724,0,0,0-5.11,13.122A21.83,21.83,0,0,0-502.451,583L62.186,1053.869a22.1,22.1,0,0,0,31.05-2.763l471.982-563.03A21.722,21.722,0,0,0,570.328,474.948Z" fill="url(#linear-gradient)"/>
    <path id="Path_1204" data-name="Path 1204" d="M-516.42,537.711a23.311,23.311,0,0,1,5.755-14.4L-42.4-15.732a23.521,23.521,0,0,1,16.194-8.083A23.548,23.548,0,0,1-9.027-18.108L531.546,449.035a23.558,23.558,0,0,1,2.395,33.293L65.676,1021.358a23.686,23.686,0,0,1-33.371,2.378L-508.274,556.591A23.463,23.463,0,0,1-516.42,537.711ZM537.428,467.818a21.222,21.222,0,0,0-7.365-17.073L-10.513-16.4A21.277,21.277,0,0,0-26.05-21.558a21.27,21.27,0,0,0-14.641,7.307L-508.949,524.784a21.069,21.069,0,0,0-5.2,13.026,21.226,21.226,0,0,0,7.364,17.073L33.786,1022.028a21.438,21.438,0,0,0,30.177-2.147l468.26-539.038A21.047,21.047,0,0,0,537.428,467.818Z" fill="url(#linear-gradient)"/>
    <path id="Path_1205" data-name="Path 1205" d="M-520.245,510.361a22.943,22.943,0,0,1,5.883-14.336L-49.821-19.016a22.88,22.88,0,0,1,15.9-7.569,22.905,22.905,0,0,1,16.608,5.859L499.2,442.706a22.911,22.911,0,0,1,1.72,32.416L36.376,990.164a23.056,23.056,0,0,1-32.5,1.705L-512.642,528.435A22.863,22.863,0,0,1-520.245,510.361ZM504.533,460.685a20.6,20.6,0,0,0-6.853-16.3L-18.837-19.045a20.628,20.628,0,0,0-14.969-5.279A20.615,20.615,0,0,0-48.133-17.5l-464.543,515.04a20.683,20.683,0,0,0-5.3,12.922,20.628,20.628,0,0,0,6.854,16.3L5.393,990.19a20.786,20.786,0,0,0,29.3-1.538L499.23,473.608A20.656,20.656,0,0,0,504.533,460.685Z" fill="url(#linear-gradient)"/>
    <path id="Path_1206" data-name="Path 1206" d="M-524.075,483.012a22.3,22.3,0,0,1,6.015-14.268L-57.238-22.3a22.249,22.249,0,0,1,15.6-7.055A22.271,22.271,0,0,1-25.608-23.34L466.849,436.375a22.277,22.277,0,0,1,1.049,31.546L7.074,958.966A22.443,22.443,0,0,1-24.554,960L-517.011,500.288A22.283,22.283,0,0,1-524.075,483.012ZM471.65,453.553a20.026,20.026,0,0,0-6.351-15.53L-27.157-21.689a20,20,0,0,0-14.406-5.4,20.007,20.007,0,0,0-14.02,6.339L-516.4,470.29a20.023,20.023,0,0,0-5.407,12.819,20.037,20.037,0,0,0,6.346,15.529L-23,958.349a20.167,20.167,0,0,0,28.422-.93L466.242,466.373A20.037,20.037,0,0,0,471.65,453.553Z" fill="url(#linear-gradient)"/>
    <path id="Path_1207" data-name="Path 1207" d="M-527.916,455.653a21.624,21.624,0,0,1,6.161-14.193l457.1-467.049A21.811,21.811,0,0,1-33.9-25.955l468.4,456a21.651,21.651,0,0,1,.374,30.674L-22.23,927.764a21.813,21.813,0,0,1-30.755.369l-468.392-456A21.7,21.7,0,0,1-527.916,455.653Zm966.685-9.233a19.431,19.431,0,0,0-5.854-14.756l-468.4-456a19.543,19.543,0,0,0-27.55.332l-457.1,467.049a19.348,19.348,0,0,0-5.518,12.711,19.422,19.422,0,0,0,5.856,14.76l468.393,456a19.545,19.545,0,0,0,27.547-.335l457.1-467.046A19.378,19.378,0,0,0,438.769,446.42Z" fill="url(#linear-gradient)"/>
    <path id="Path_1208" data-name="Path 1208" d="M-531.769,428.3a21,21,0,0,1,6.323-14.129L-72.067-28.877a21.2,21.2,0,0,1,29.881.308L402.152,423.717a21.033,21.033,0,0,1-.3,29.8L-51.531,896.571a21.2,21.2,0,0,1-29.882-.306L-525.75,443.98A21.152,21.152,0,0,1-531.769,428.3ZM405.9,439.288a18.84,18.84,0,0,0-5.37-13.985L-43.8-26.985a18.922,18.922,0,0,0-26.674-.275l-453.38,443.051A18.737,18.737,0,0,0-529.5,428.4a18.873,18.873,0,0,0,5.376,13.989L-79.8,894.684a18.921,18.921,0,0,0,26.677.264L400.261,451.9A18.728,18.728,0,0,0,405.9,439.288Z" fill="url(#linear-gradient)"/>
    <path id="Path_1209" data-name="Path 1209" d="M-535.627,400.95a20.3,20.3,0,0,1,6.486-14.053L-79.477-32.163a20.406,20.406,0,0,1,14.707-5.5,20.419,20.419,0,0,1,14.3,6.483L369.8,417.389a20.419,20.419,0,0,1-.983,28.926L-80.841,865.374a20.589,20.589,0,0,1-29-.98L-530.119,415.822A20.292,20.292,0,0,1-535.627,400.95Zm908.673,31.207a18.04,18.04,0,0,0-4.9-13.225L-52.133-29.633A18.146,18.146,0,0,0-64.846-35.4a18.162,18.162,0,0,0-13.082,4.89L-527.586,388.546a18.072,18.072,0,0,0-5.774,12.508,18.049,18.049,0,0,0,4.9,13.224l420.278,448.567a18.312,18.312,0,0,0,25.8.874L367.273,444.662A18.077,18.077,0,0,0,373.046,432.157Z" fill="url(#linear-gradient)"/>
    <path id="Path_1210" data-name="Path 1210" d="M-539.5,373.6a19.7,19.7,0,0,1,6.675-13.99L-86.888-35.453A19.987,19.987,0,0,1-58.76-33.788L337.458,411.066a19.835,19.835,0,0,1-1.663,28.05L-110.146,834.185a20,20,0,0,1-28.132-1.67L-534.491,387.666A19.745,19.745,0,0,1-539.5,373.6Zm879.7,51.424a17.482,17.482,0,0,0-4.438-12.458L-60.456-32.284a17.713,17.713,0,0,0-24.926-1.477L-531.323,361.3a17.428,17.428,0,0,0-5.911,12.4,17.487,17.487,0,0,0,4.44,12.46l396.215,444.854a17.709,17.709,0,0,0,24.928,1.473L334.286,437.425A17.432,17.432,0,0,0,340.2,425.025Z" fill="url(#linear-gradient)"/>
    <path id="Path_1211" data-name="Path 1211" d="M-543.386,346.249a19.318,19.318,0,0,1,6.867-13.92L-94.3-38.741A19.257,19.257,0,0,1-80.184-43.2a19.239,19.239,0,0,1,13.139,6.8L305.108,404.741a19.254,19.254,0,0,1-2.343,27.178L-139.458,802.983a19.4,19.4,0,0,1-27.248-2.342L-538.86,359.5A19.192,19.192,0,0,1-543.386,346.249ZM307.368,417.9a16.96,16.96,0,0,0-3.993-11.7L-68.782-34.938a16.958,16.958,0,0,0-11.6-6,16.984,16.984,0,0,0-12.458,3.931l-442.221,371.07a17.052,17.052,0,0,0-6.062,12.287,16.957,16.957,0,0,0,3.991,11.7l372.156,441.137a17.127,17.127,0,0,0,24.054,2.066L301.3,430.186A17.055,17.055,0,0,0,307.368,417.9Z" fill="url(#linear-gradient)"/>
    <path id="Path_1212" data-name="Path 1212" d="M-547.286,318.895a18.687,18.687,0,0,1,7.086-13.853L-101.7-42.032A18.674,18.674,0,0,1-87.89-45.961,18.658,18.658,0,0,1-75.332-39l348.1,437.419a18.683,18.683,0,0,1-3.033,26.3l-438.5,347.075a18.823,18.823,0,0,1-26.365-3.031l-348.1-437.417A18.725,18.725,0,0,1-547.286,318.895Zm821.834,91.87a16.429,16.429,0,0,0-3.559-10.94L-77.109-37.592A16.412,16.412,0,0,0-88.15-43.713a16.4,16.4,0,0,0-12.139,3.454l-438.5,347.074A16.449,16.449,0,0,0-545.019,319a16.454,16.454,0,0,0,3.561,10.938l348.093,437.419a16.55,16.55,0,0,0,23.186,2.664l438.5-347.07A16.436,16.436,0,0,0,274.548,410.765Z" fill="url(#linear-gradient)"/>
    <path id="Path_1213" data-name="Path 1213" d="M-551.2,291.54a18.1,18.1,0,0,1,7.317-13.787L-109.107-45.32A18.271,18.271,0,0,1-83.616-41.6L240.418,392.1a18.129,18.129,0,0,1-3.722,25.421L-198.082,740.6a18.274,18.274,0,0,1-25.489-3.715L-547.608,303.177A18.2,18.2,0,0,1-551.2,291.54Zm792.946,112.1a15.916,15.916,0,0,0-3.144-10.186L-85.436-40.251a16,16,0,0,0-22.317-3.255L-542.527,279.572a15.832,15.832,0,0,0-6.408,12.066,15.965,15.965,0,0,0,3.145,10.188l324.04,433.705a15.99,15.99,0,0,0,22.31,3.252L235.343,415.707A15.839,15.839,0,0,0,241.745,403.638Z" fill="url(#linear-gradient)"/>
    <path id="Path_1214" data-name="Path 1214" d="M-555.131,264.182a17.489,17.489,0,0,1,7.566-13.712L-116.509-48.61A17.729,17.729,0,0,1-91.9-44.2l299.977,429.99a17.605,17.605,0,0,1-4.409,24.539L-227.4,709.407a17.728,17.728,0,0,1-24.6-4.406L-551.98,275.008A17.423,17.423,0,0,1-555.131,264.182Zm764.089,132.33a15.217,15.217,0,0,0-2.744-9.434L-93.763-42.911a15.457,15.457,0,0,0-21.45-3.843l-431.06,299.083a15.249,15.249,0,0,0-6.593,11.952,15.2,15.2,0,0,0,2.748,9.43l299.973,429.995a15.45,15.45,0,0,0,21.45,3.841l431.061-299.08A15.253,15.253,0,0,0,208.958,396.512Z" fill="url(#linear-gradient)"/>
    <path id="Path_1215" data-name="Path 1215" d="M-559.082,236.827a17.132,17.132,0,0,1,7.839-13.642L-123.906-51.9a17.208,17.208,0,0,1,23.72,5.1L175.728,379.473a16.945,16.945,0,0,1,2.73,10.01,17.12,17.12,0,0,1-7.839,13.641L-256.719,678.21a17.208,17.208,0,0,1-23.718-5.1L-556.356,246.84A17,17,0,0,1-559.082,236.827ZM176.192,389.386a14.688,14.688,0,0,0-2.367-8.686L-102.091-45.577A14.937,14.937,0,0,0-122.676-50L-550.014,225.083a14.881,14.881,0,0,0-6.8,11.844,14.707,14.707,0,0,0,2.371,8.682L-278.532,671.89a14.933,14.933,0,0,0,20.583,4.418L169.392,401.224A14.886,14.886,0,0,0,176.192,389.386Z" fill="url(#linear-gradient)"/>
    <path id="Path_1216" data-name="Path 1216" d="M-563.052,209.468a16.56,16.56,0,0,1,8.132-13.57L-131.3-55.193a16.7,16.7,0,0,1,22.831,5.8L143.383,373.16a16.581,16.581,0,0,1-5.806,22.772l-423.621,251.09a16.707,16.707,0,0,1-22.829-5.8l-251.856-422.56A16.525,16.525,0,0,1-563.052,209.468ZM143.442,382.257a14.267,14.267,0,0,0-2.006-7.939L-110.417-48.241a14.436,14.436,0,0,0-19.725-5.007l-423.616,251.09a14.315,14.315,0,0,0-7.029,11.725,14.27,14.27,0,0,0,2.009,7.943l251.855,422.559a14.424,14.424,0,0,0,19.719,5l423.622-251.09A14.307,14.307,0,0,0,143.442,382.257Z" fill="url(#linear-gradient)"/>
    <path id="Path_1217" data-name="Path 1217" d="M-567.045,182.107a16.221,16.221,0,0,1,8.453-13.5l419.9-227.094a16.225,16.225,0,0,1,21.939,6.5l227.795,418.84a16.108,16.108,0,0,1-6.507,21.88l-419.9,227.095a16.226,16.226,0,0,1-21.94-6.5L-565.1,190.49A16.062,16.062,0,0,1-567.045,182.107ZM110.718,375.138a13.786,13.786,0,0,0-1.674-7.2L-118.749-50.909a13.953,13.953,0,0,0-18.866-5.586L-557.512,170.6a13.775,13.775,0,0,0-7.268,11.608,13.8,13.8,0,0,0,1.672,7.206l227.8,418.843a13.952,13.952,0,0,0,18.864,5.584l419.9-227.1A13.766,13.766,0,0,0,110.718,375.138Z" fill="url(#linear-gradient)"/>
    <path id="Path_1218" data-name="Path 1218" d="M-571.065,154.743a15.682,15.682,0,0,1,8.8-13.417l416.181-203.1a15.775,15.775,0,0,1,21.046,7.2L78.7,360.551a15.652,15.652,0,0,1-7.216,20.984l-416.18,203.1a15.763,15.763,0,0,1-21.043-7.2L-569.478,162.309A15.662,15.662,0,0,1-571.065,154.743ZM78.022,368.016a13.388,13.388,0,0,0-1.367-6.47L-127.079-53.582a13.492,13.492,0,0,0-18-6.161l-416.181,203.1a13.423,13.423,0,0,0-7.532,11.485,13.4,13.4,0,0,0,1.361,6.474L-363.7,576.443A13.493,13.493,0,0,0-345.7,582.6l416.181-203.1A13.443,13.443,0,0,0,78.022,368.016Z" fill="url(#linear-gradient)"/>
  </g>
</svg>
