<svg xmlns="http://www.w3.org/2000/svg" xmlns:xlink="http://www.w3.org/1999/xlink" width="120" height="120" viewBox="0 0 120 120">
  <defs>
    <clipPath id="clip-Artboard_1">
      <rect width="120" height="120"/>
    </clipPath>
  </defs>
  <g id="Artboard_1" data-name="Artboard – 1" clip-path="url(#clip-Artboard_1)">
    <g id="whatsapp" transform="translate(12.523 12.523)">
      <path id="Path_1" data-name="Path 1" d="M0,94.955,6.549,71.216A47.224,47.224,0,0,1,47.314,0C73.344,0,94.955,21.283,94.955,47.15S73.345,94.955,47.314,94.955c-8.186,0-16.044-2.619-23.084-6.549Z" fill="#ededed"/>
      <path id="Path_2" data-name="Path 2" d="M61.492,115.845l1.473.819a38.871,38.871,0,0,0,20.464,6.057c21.447,0,39.292-17.845,39.292-39.619S104.876,44.138,83.266,44.138A38.988,38.988,0,0,0,44.138,83.1,39.66,39.66,0,0,0,50.2,104.221l.982,1.473-3.765,13.752Z" transform="translate(-35.952 -35.952)" fill="#55cd6c"/>
      <path id="Path_3" data-name="Path 3" d="M140.362,135.226l-3.111-.164a3.718,3.718,0,0,0-2.619.982c-1.474,1.31-3.929,3.765-4.584,7.04-1.146,4.912.655,10.805,4.911,16.7s12.442,15.389,26.849,19.482a13.3,13.3,0,0,0,11.133-1.31,9.659,9.659,0,0,0,4.257-6.221l.491-2.292a1.646,1.646,0,0,0-.819-1.8l-10.314-4.748a1.562,1.562,0,0,0-1.965.491l-4.093,5.239a1.273,1.273,0,0,1-1.31.328c-2.783-.982-12.115-4.912-17.19-14.734a1.236,1.236,0,0,1,.164-1.31l3.929-4.42a2.017,2.017,0,0,0,.328-1.637l-4.748-10.641a1.426,1.426,0,0,0-1.31-.982" transform="translate(-105.654 -110.014)" fill="#fefefe"/>
    </g>
  </g>
</svg>
