<svg id="_22_Icons_Line_Phone" data-name="22) Icons/Line/Phone" xmlns="http://www.w3.org/2000/svg" width="19" height="19" viewBox="0 0 19 19">
  <path id="Shape" d="M13.728,19C10.9,19,7.4,17.247,4.576,14.424A16.132,16.132,0,0,1,.315,7.487c-.643-2.4-.3-4.417.979-5.693.495-.5.644-.651,1.1-1.1A2.54,2.54,0,0,1,4.176,0,2.449,2.449,0,0,1,5.914.693,30.377,30.377,0,0,1,8.53,4.042c.494.547.456,1.213-.112,1.979A5.191,5.191,0,0,1,8,6.5c-.078.081-.139.143-.266.27l-.72.721L7.011,7.5A.046.046,0,0,0,7,7.537a7.139,7.139,0,0,0,1.829,2.63A7.124,7.124,0,0,0,11.459,12a.047.047,0,0,0,.033-.009l.728-.728a5.444,5.444,0,0,1,.905-.787,1.826,1.826,0,0,1,.99-.341,1.228,1.228,0,0,1,.836.334,28.366,28.366,0,0,1,3.357,2.627,2.564,2.564,0,0,1,.005,3.5c-.291.307-.665.681-1.11,1.111A4.778,4.778,0,0,1,13.728,19ZM4.166,1.9a.653.653,0,0,0-.436.142c-.464.458-.616.61-1.087,1.088-.833.832-.973,2.376-.384,4.236a14.694,14.694,0,0,0,3.66,5.711c2.439,2.441,5.5,4.018,7.8,4.018a2.972,2.972,0,0,0,2.159-.753c.432-.418.79-.775,1.061-1.061a.675.675,0,0,0,.005-.873,26.606,26.606,0,0,0-2.9-2.258,6.555,6.555,0,0,0-.48.45l-.728.728a1.775,1.775,0,0,1-1.3.532c-1.093,0-2.531-.836-4.047-2.353C5.211,9.23,4.548,7.281,5.668,6.16L6.4,5.433c.117-.117.17-.172.233-.238.09-.094.16-.174.216-.243A28.376,28.376,0,0,0,4.58,2.045.592.592,0,0,0,4.166,1.9Z" transform="translate(0)" fill="#ea1b64"/>
</svg>
